<svg width="87" height="92" viewBox="0 0 87 92" fill="none" xmlns="http://www.w3.org/2000/svg">
<path d="M26.8312 0.360804C27.0476 0.398733 27.2101 0.435437 27.4272 0.469166C27.4272 0.540686 27.5355 0.523348 27.5897 0.577529C27.6439 0.577529 27.6277 0.622068 27.6981 0.631711C30.1913 1.22742 32.5698 2.92424 34.6101 4.41293C34.8293 4.57193 35.0503 4.72771 35.2729 4.88199C35.9787 5.37271 36.6459 5.89085 37.2959 6.45372C37.6016 6.71821 37.9092 6.96646 38.2431 7.19443C38.3392 7.26372 38.4354 7.333 38.5344 7.40438C38.5344 7.4759 38.5344 7.54742 38.5344 7.62111C38.5975 7.65016 38.6606 7.67922 38.7257 7.70915C38.9708 7.83944 39.1635 7.98285 39.3742 8.16292C39.4407 8.2188 39.5072 8.27467 39.5757 8.33224C39.7264 8.48801 39.7264 8.48801 39.7264 8.70474C39.7867 8.72932 39.847 8.75391 39.9092 8.77924C40.2314 8.9621 40.4418 9.19803 40.7016 9.46328C40.8208 9.58156 40.9402 9.69965 41.0597 9.81757C42.2866 11.0334 42.2866 11.0334 42.8007 11.6403C43.0122 11.8882 43.2317 12.128 43.4513 12.3688C43.8732 12.8362 44.2738 13.3175 44.6696 13.8071C44.8999 14.0887 45.1342 14.3659 45.371 14.6421C45.9773 15.3501 46.5438 16.0798 47.095 16.8319C47.2034 16.9771 47.3119 17.1221 47.4205 17.2671C47.5311 17.4155 47.6415 17.5639 47.752 17.7124C47.8051 17.7831 47.8581 17.8537 47.9128 17.9265C48.287 18.4327 48.287 18.4327 48.287 18.6741C48.3957 18.6716 48.5043 18.669 48.6163 18.6664C49.0407 18.674 49.4278 18.7242 49.8456 18.7973C49.9201 18.8102 49.9947 18.8232 50.0715 18.8365C50.3121 18.8786 50.5525 18.9218 50.7929 18.9653C50.8754 18.9801 50.9578 18.995 51.0428 19.0102C54.4338 19.6213 57.9206 20.3871 60.532 22.7919C60.6105 22.8605 60.689 22.9291 60.7699 22.9997C61.8072 23.9562 62.4294 25.2044 62.5164 26.61C62.6059 28.9506 61.5641 30.7158 60.0378 32.4069C59.2286 33.2756 58.3511 34.0183 57.3895 34.7118C57.2871 34.7857 57.1847 34.8596 57.0792 34.9357C56.7293 35.184 56.3832 35.4258 56.0113 35.6401C55.7516 35.7734 55.7516 35.7734 55.6557 36.0122C55.7272 36.0479 55.7987 36.0837 55.8724 36.1205C55.8009 36.1205 55.7294 36.1205 55.6557 36.1205C55.6852 36.2353 55.6852 36.2353 55.7154 36.3525C56.5391 39.715 56.8009 43.2868 56.8477 46.7401C59.2511 47.0009 61.7366 46.809 63.7245 45.3098C65.0247 44.3876 66.4321 43.997 68.009 44.031C68.177 43.5297 68.3448 43.0284 68.5124 42.527C68.5694 42.3565 68.6265 42.186 68.6836 42.0156C68.7658 41.7703 68.8478 41.525 68.9297 41.2796C68.9552 41.2036 68.9807 41.1276 69.007 41.0494C69.1204 40.7092 69.2305 40.3715 69.3094 40.0216C69.2306 39.9929 69.1518 39.9643 69.0707 39.9348C68.5582 39.7151 68.1321 39.3742 67.684 39.0463C67.5981 38.9856 67.5121 38.9248 67.4236 38.8622C66.8149 38.4158 66.3839 37.9272 65.9502 37.3125C65.8707 37.2037 65.7912 37.0949 65.7093 36.9828C65.1644 36.227 64.7184 35.449 64.3247 34.6034C64.2832 34.5287 64.2417 34.454 64.199 34.377C64.108 34.17 64.108 34.17 64.108 33.7365C64.0365 33.7008 63.9649 33.665 63.8913 33.6282C63.3169 31.6013 63.2454 29.3741 63.6271 27.3038C63.6847 27.0187 63.6847 27.0187 63.661 26.7289C63.6784 26.4045 63.771 26.3729 63.9996 26.1511C64.1198 25.8882 64.2307 25.6267 64.3383 25.3587C65.5417 22.5124 67.8182 20.3455 70.6775 19.1821C72.9709 18.2871 75.7102 18.1113 78.0868 18.7825C78.1943 18.8114 78.3019 18.8403 78.4127 18.8701C79.8664 19.3062 81.2891 20.0507 82.4213 21.0581C82.5514 21.1712 82.5514 21.1712 82.6842 21.2867C84.9614 23.2909 86.4167 26.0317 86.6474 29.0769C86.7682 31.5266 86.3254 33.7606 85.1304 35.9038C85.0713 36.0109 85.0122 36.1181 84.9513 36.2285C83.4552 38.7487 80.8526 40.5574 78.048 41.2988C76.4867 41.694 75.0241 41.6829 73.4272 41.5387C72.8332 43.0926 72.8332 43.0926 72.3436 44.6812C72.3172 44.7537 72.2908 44.8262 72.2636 44.9009C72.2117 45.1212 72.2117 45.1212 72.3516 45.3085C72.4093 45.3742 72.467 45.4398 72.5264 45.5074C73.4889 46.7027 73.5121 48.0933 73.4272 49.5575C73.2583 50.7695 72.6497 51.929 71.6934 52.7C71.0104 53.1974 70.3896 53.4997 69.5261 53.4586C69.5165 53.5406 69.5068 53.6226 69.4969 53.707C69.3865 54.2674 69.2038 54.7951 69.0182 55.3346C68.9828 55.4424 68.9474 55.5501 68.9109 55.6612C68.6106 56.5356 68.2801 57.4235 67.4131 57.854C67.0254 58.0121 66.6921 58.0236 66.2752 58.0098C66.2487 58.0876 66.2222 58.1654 66.1948 58.2456C65.5142 60.1301 64.5926 62.2791 62.6993 63.2112C61.3118 63.7652 59.5207 63.1888 58.1346 62.8303C57.9518 62.7831 57.7684 62.7377 57.5851 62.6927C57.028 62.5507 56.5172 62.3701 55.9969 62.1259C55.6376 61.9613 55.2684 61.8292 54.8972 61.6941C54.8787 61.7602 54.8603 61.8262 54.8413 61.8943C54.6492 62.5604 54.4158 63.1925 54.1386 63.8275C54.0753 63.9735 54.0753 63.9735 54.0107 64.1224C51.7024 69.3933 48.4264 76.5172 43.3023 79.6824C43.2198 79.7385 43.1372 79.7947 43.0522 79.8525C41.4917 80.8723 39.7622 81.1391 37.9346 80.8275C37.4171 80.7157 36.9118 80.5682 36.4063 80.4114C35.9622 80.2746 35.5149 80.1506 35.0668 80.0278C34.9865 80.0041 34.9062 79.9804 34.8235 79.9559C33.9246 79.7072 33.1308 79.6323 32.2828 80.0722C32.0695 80.1953 31.8575 80.3205 31.6466 80.4477C28.5662 82.2029 25.2525 82.9838 21.7343 82.0812C21.054 81.8913 20.4083 81.6514 19.7597 81.373C19.6415 81.3224 19.5233 81.2719 19.4016 81.2198C19.2941 81.1721 19.1867 81.1245 19.0761 81.0754C18.989 81.0448 18.902 81.0142 18.8123 80.9827C18.7408 81.0185 18.6693 81.0542 18.5956 81.0911C18.5733 81.024 18.5509 80.957 18.5279 80.8879C18.3932 80.6271 18.3932 80.6271 18.0741 80.556C17.6542 80.4161 17.4939 80.2147 17.1869 79.8991C16.9949 79.7362 16.8007 79.5759 16.6045 79.4182C16.0112 78.9404 16.0112 78.9404 15.8314 78.7577C15.5001 78.433 15.2578 78.232 14.7839 78.2115C14.6188 78.2168 14.4538 78.2257 14.289 78.2377C14.2014 78.2412 14.1137 78.2448 14.0234 78.2485C13.7457 78.2605 13.4685 78.2771 13.191 78.294C12.9113 78.3079 12.6315 78.321 12.3517 78.3336C12.1781 78.3418 12.0046 78.3509 11.8311 78.3611C11.6299 78.3721 11.4284 78.3776 11.227 78.382C11.1912 78.3462 11.1554 78.3105 11.1186 78.2736C10.9247 78.2435 10.7307 78.2139 10.5363 78.1871C9.61715 78.0576 8.7455 77.8439 7.86093 77.5625C7.75586 77.5295 7.65079 77.4964 7.54254 77.4623C6.98675 77.2802 6.98675 77.2802 6.78408 77.19C6.74832 77.1185 6.71256 77.047 6.67571 76.9733C6.45911 76.9007 6.24237 76.8285 6.02554 76.7566C5.82083 76.6387 5.61977 76.5144 5.42277 76.3841C4.74673 75.8769 4.74673 75.8769 3.96664 75.6729C3.93982 75.5925 3.913 75.512 3.88537 75.4291C3.77 75.129 3.77 75.129 3.56028 74.9415C2.98978 74.371 2.61507 73.786 2.51645 72.9791C2.57804 72.6347 2.75912 72.463 2.99138 72.2053C3.25869 72.03 3.25869 72.03 3.5569 71.8785C3.66624 71.8217 3.77558 71.7649 3.88823 71.7064C4.00351 71.6476 4.11878 71.5887 4.23755 71.5281C5.19251 71.0248 6.07295 70.5298 6.89244 69.8213C6.9465 69.7747 7.00056 69.7281 7.05625 69.6801C7.9721 68.8835 8.85323 68.0438 9.49315 67.0039C9.40207 66.9939 9.311 66.9838 9.21716 66.9734C8.79093 66.8847 8.43884 66.7175 8.05734 66.5163C7.98973 66.4815 7.92212 66.4467 7.85247 66.4109C7.67658 66.3203 7.5012 66.2287 7.32589 66.137C7.25437 66.1013 7.18285 66.0655 7.10917 66.0286C7.10917 65.9571 7.10917 65.8856 7.10917 65.8119C6.6699 65.5847 6.39396 65.4539 5.90702 65.5867C5.38017 65.7133 4.88595 65.7359 4.34591 65.7307C4.26029 65.7315 4.17466 65.7323 4.08644 65.7332C3.48023 65.7312 2.92702 65.6405 2.3412 65.4868C2.3412 65.4153 2.3412 65.3438 2.3412 65.2701C2.26968 65.25 2.19816 65.2299 2.12448 65.2092C1.24423 64.7874 0.562264 64.0075 0.194265 63.1096C-0.16016 61.9139 -0.0127046 60.5407 0.499036 59.4185C0.712646 59.0684 0.936966 58.7356 1.18096 58.406C1.36905 58.1133 1.44447 57.9206 1.4743 57.5764C1.42025 57.4034 1.36606 57.2304 1.31091 57.0578C1.13016 56.2444 1.13061 55.2643 1.58266 54.5422C2.7784 52.9685 4.51182 51.9367 6.1339 50.8579C6.2488 50.7814 6.2488 50.7814 6.36602 50.7034C7.20376 50.1489 8.06209 49.6373 8.93821 49.1457C9.20989 48.992 9.48021 48.8361 9.75051 48.68C9.85226 48.6214 9.95401 48.5628 10.0588 48.5024C10.2607 48.386 10.4624 48.2695 10.664 48.1527C10.8037 48.0724 10.8037 48.0724 10.9463 47.9905C11.0706 47.9187 11.0706 47.9187 11.1973 47.8456C11.4542 47.7098 11.7141 47.6018 11.9855 47.4986C11.987 47.4355 11.9886 47.3723 11.9901 47.3073C12.0528 46.2301 12.4035 45.3098 13.1529 44.5296C13.378 44.2358 13.3794 43.9605 13.3942 43.5976C13.183 43.564 13.183 43.564 12.9675 43.5298C11.408 43.2153 9.21851 42.5644 8.08443 41.4303C7.94489 41.3101 7.80488 41.1905 7.66452 41.0713C7.0855 40.5678 6.62359 40.0387 6.24226 39.3714C6.17074 39.2999 6.09922 39.2284 6.02554 39.1547C5.44779 37.3251 5.81321 35.4797 6.65585 33.8205C6.9662 33.233 7.31743 32.7171 7.75934 32.2195C7.86746 32.094 7.86746 32.094 7.97776 31.9659C9.1711 30.6073 10.4557 29.4127 11.9178 28.3455C11.9789 28.3003 12.0401 28.2552 12.1031 28.2086C12.4966 27.9269 12.8958 27.6935 13.3277 27.4748C13.4293 27.4203 13.5309 27.3659 13.6355 27.3098C13.8337 27.2046 14.0351 27.1054 14.2399 27.0137C14.7422 26.7406 15.0129 26.4635 15.18 25.9169C15.3048 25.4261 15.3979 24.9293 15.4923 24.4319C15.6154 23.8271 15.777 23.2323 15.9348 22.6357C16.0008 22.3824 16.0667 22.129 16.1325 21.8757C16.1995 21.619 16.2665 21.3622 16.3335 21.1055C16.4348 20.7168 16.5361 20.3281 16.6372 19.9393C16.6995 19.7001 16.7619 19.4609 16.8243 19.2218C17.0222 18.4625 17.2147 17.7019 17.4036 16.9403C17.3321 17.0476 17.2606 17.1549 17.1869 17.2654C17.1125 17.2795 17.038 17.2936 16.9613 17.3081C16.4929 17.4053 16.1185 17.6494 15.7037 17.8817C14.4139 18.5822 13.0169 19.1332 11.552 19.3243C11.4529 19.3374 11.3537 19.3506 11.2515 19.3641C9.76788 19.5237 8.42049 19.289 7.0008 18.8908C6.92954 18.8728 6.85829 18.8548 6.78487 18.8362C6.6022 18.7886 6.42192 18.732 6.24226 18.6741C6.2065 18.6026 6.17074 18.5311 6.1339 18.4574C5.95455 18.3821 5.77368 18.3104 5.59209 18.2407C4.71329 17.7711 3.43062 16.9577 3.09974 15.965C3.07392 15.7551 3.07392 15.7551 3.06588 15.5316C3.06183 15.4578 3.05778 15.3841 3.0536 15.3081C3.09974 15.0981 3.09974 15.0981 3.28697 14.924C3.57369 14.7482 3.71853 14.7374 4.0513 14.7489C4.20059 14.7523 4.20059 14.7523 4.3529 14.7557C4.45787 14.7592 4.56285 14.7627 4.671 14.7663C6.51069 14.7915 8.09663 14.5154 9.47198 13.1908C10.4335 12.1403 11.2358 10.9577 12.0487 9.79175C16.2321 3.79487 16.2321 3.79487 18.4873 2.20297C18.5588 2.20297 18.6303 2.20297 18.704 2.20297C18.704 2.13145 18.704 2.05993 18.704 1.98625C18.9494 1.81969 19.1929 1.66754 19.449 1.51893C19.5236 1.47518 19.5983 1.43144 19.6752 1.38636C19.8926 1.25997 20.1108 1.13517 20.3294 1.01098C20.4271 0.955106 20.5247 0.899232 20.6253 0.841664C22.6073 -0.22071 24.7006 -0.152553 26.8312 0.360804ZM19.3542 3.50332C19.2592 3.58797 19.1642 3.67262 19.0663 3.75984C18.8782 3.92903 18.691 4.09924 18.505 4.27075C18.2705 4.47859 18.2705 4.47859 17.9454 4.69532C17.9454 4.76683 17.9454 4.83835 17.9454 4.91204C17.8739 4.91204 17.8024 4.91204 17.7287 4.91204C17.573 5.05752 17.573 5.05752 17.4104 5.25745C17.3431 5.33679 17.2757 5.41613 17.2064 5.49788C17.1284 5.59063 17.0505 5.68338 16.9702 5.77894C16.8788 5.8851 16.7875 5.99127 16.6933 6.10064C15.2997 7.72287 14.0038 9.44136 12.8321 11.2309C11.3696 13.4523 9.65582 15.4766 6.96694 16.1289C6.47524 16.2182 5.98235 16.2622 5.48372 16.2901C6.5626 17.4515 8.25853 17.8107 9.78945 17.9532C12.5298 18.0245 14.94 16.7352 17.1869 15.3149C17.2857 15.2602 17.3844 15.2056 17.4862 15.1494C18.2578 14.6685 18.4045 13.9726 18.6092 13.1328C18.6405 12.9946 18.6717 12.8565 18.704 12.7142C18.8563 12.0942 19.0186 11.4766 19.1781 10.8584C19.211 10.7299 19.244 10.6014 19.278 10.469C19.374 10.0972 19.4719 9.72596 19.5709 9.35491C19.6133 9.19258 19.6133 9.19258 19.6565 9.02697C19.6833 8.92985 19.7101 8.83273 19.7377 8.73267C19.7605 8.64818 19.7834 8.56369 19.8069 8.47664C19.896 8.27129 19.896 8.27129 20.2211 8.05456C20.4987 8.02747 20.4987 8.02747 20.7629 8.05456C20.9796 8.27129 20.9796 8.27129 21.0157 8.67998C20.9987 9.38602 20.802 10.0483 20.6185 10.7264C20.5803 10.8709 20.5422 11.0155 20.5042 11.1601C20.4028 11.545 20.2998 11.9294 20.1967 12.3139C20.0903 12.7113 19.9854 13.1091 19.8804 13.5068C19.5075 14.9166 19.1291 16.3249 18.7459 17.7319C18.7173 17.8371 18.6887 17.9424 18.6593 18.0508C18.5296 18.5282 18.3991 19.0054 18.2664 19.482C18.2212 19.647 18.176 19.812 18.1308 19.977C18.1101 20.0501 18.0893 20.1233 18.0679 20.1986C17.9734 20.5476 17.9366 20.7063 18.0538 21.0581C18.1253 20.9866 18.1968 20.9151 18.2705 20.8414C18.7673 20.5372 19.2783 20.2572 19.7876 19.9745C19.8563 19.936 19.9249 19.8975 19.9957 19.8578C24.9746 17.0804 30.676 15.5346 36.3468 15.1158C36.5636 15.0997 36.7801 15.0808 36.9966 15.0617C38.8629 14.9105 40.7174 14.9615 42.5777 15.1591C43.0029 15.2031 43.4169 15.2158 43.8441 15.2065C43.4024 14.5807 42.9133 14.0214 42.3898 13.4642C42.1073 13.1634 41.8318 12.8595 41.5643 12.5453C41.0307 11.9322 40.4509 11.3636 39.8754 10.7902C39.6794 10.5947 39.4839 10.3987 39.2885 10.2026C38.6582 9.57186 38.0254 8.95374 37.3424 8.37965C37.2152 8.26941 37.088 8.15908 36.961 8.04863C36.8421 7.94669 36.7232 7.84482 36.6042 7.74302C36.5436 7.6905 36.4831 7.63797 36.4207 7.58386C36.1507 7.35344 35.9488 7.1927 35.6086 7.0793C35.4261 6.90053 35.2458 6.71966 35.0668 6.53748C34.2769 5.89701 33.4401 5.33521 32.5744 4.80368C32.4616 4.73342 32.3487 4.66315 32.2324 4.59076C31.9938 4.44279 31.7547 4.29578 31.5149 4.14969C31.298 4.01741 31.0819 3.88363 30.8673 3.74756C27.2528 1.52129 22.8061 0.424956 19.3542 3.50332ZM33.2246 16.9403C33.0987 16.96 32.9728 16.9797 32.8432 17C30.0151 17.4517 27.2147 18.1462 24.5556 19.2159C24.4633 19.2523 24.371 19.2887 24.276 19.3262C22.2138 20.1452 20.1765 21.1579 18.3789 22.4668C18.2859 22.5297 18.1928 22.5925 18.097 22.6573C17.5135 23.0704 17.2481 23.3991 17.0785 24.0923C17.0361 24.2241 16.9936 24.356 16.9499 24.4918C16.8708 24.814 16.8546 25.0646 16.8618 25.3926C16.9828 25.3348 17.1038 25.2769 17.2284 25.2174C17.6914 24.9965 18.1553 24.7775 18.6195 24.5591C18.8137 24.4677 19.0077 24.376 19.2016 24.284C25.1908 21.4477 31.6814 19.6583 38.2616 18.9309C38.5332 18.9055 38.5332 18.9055 38.7511 18.7825C38.9011 18.7672 39.0517 18.758 39.2023 18.752C39.3425 18.746 39.3425 18.746 39.4855 18.7399C39.5873 18.7361 39.6892 18.7322 39.7941 18.7283C39.9003 18.724 40.0064 18.7197 40.1158 18.7152C40.3415 18.706 40.5672 18.697 40.7928 18.6881C41.122 18.6746 41.4511 18.6593 41.7802 18.6432C43.2998 18.5709 44.8153 18.5525 46.3365 18.5658C46.1806 18.2453 46.0107 17.9693 45.7947 17.6853C45.7109 17.5743 45.7109 17.5743 45.6254 17.461C45.3294 17.0894 45.1652 17.0116 44.7009 16.9365C44.5891 16.9181 44.4774 16.8998 44.3623 16.8808C44.2449 16.8625 44.1276 16.8441 44.0067 16.8252C43.8357 16.797 43.8357 16.797 43.6613 16.7682C42.6228 16.6005 41.5976 16.4909 40.5454 16.481C40.4508 16.48 40.3562 16.4789 40.2588 16.4778C37.8764 16.4568 35.5772 16.5596 33.2246 16.9403ZM67.189 23.4777C65.7967 25.1016 64.951 27.2677 64.8665 29.402C64.86 29.5254 64.86 29.5254 64.8534 29.6513C64.7815 32.2374 65.7051 34.8734 67.4672 36.7707C67.5562 36.8696 67.6452 36.9685 67.7369 37.0704C69.4997 38.9403 71.886 40.0033 74.4583 40.152C76.5868 40.1787 78.6678 39.8149 80.4708 38.6129C80.5766 38.543 80.6825 38.4732 80.7916 38.4012C80.915 38.3183 81.0383 38.2353 81.1616 38.1523C81.2534 38.0922 81.2534 38.0922 81.347 38.0308C81.7891 37.731 82.0913 37.4074 82.4213 36.9874C82.5062 36.907 82.5912 36.8265 82.6787 36.7436C84.583 34.7486 85.206 32.1036 85.1647 29.4338C85.0667 26.704 83.7445 24.3218 81.8041 22.4592C80.5988 21.3547 79.0152 20.5769 77.4366 20.1912C77.3548 20.169 77.2729 20.1468 77.1886 20.1239C73.4575 19.2651 69.7143 20.7218 67.189 23.4777ZM41.4602 20.1912C41.2425 20.1948 41.0247 20.1923 40.807 20.1874C39.9127 20.1818 39.036 20.2595 38.1483 20.3605C38.0233 20.3746 38.0233 20.3746 37.8957 20.3889C33.5916 20.8799 29.3934 21.9035 25.3079 23.3314C25.0379 23.4251 24.7672 23.5156 24.4955 23.6042C20.7203 24.8588 16.8497 26.65 13.6109 28.9686C13.5496 29.0118 13.4884 29.055 13.4252 29.0995C11.0912 30.7476 7.95305 33.0372 7.32589 36.0122C7.1497 37.2393 7.23041 38.3413 7.97607 39.3714C8.84832 40.5203 10.226 41.0777 11.5317 41.5861C11.6261 41.6232 11.7205 41.6602 11.8177 41.6985C12.4213 41.9239 12.968 42.0343 13.6109 42.0805C13.7577 41.5134 13.8827 40.9478 13.9843 40.3708C14.7787 35.9908 15.8639 31.8933 19.656 29.1699C20.8369 28.3582 22.0866 27.6655 23.3636 27.018C23.449 26.9745 23.5345 26.931 23.6225 26.8861C30.1651 23.6121 38.982 22.203 46.1198 23.9839C46.2352 24.0116 46.2352 24.0116 46.3531 24.0398C49.3611 24.8278 51.6648 26.7638 53.2382 29.3967C54.1138 30.9225 54.6624 32.6182 55.2222 34.2784C55.7596 34.1055 56.1613 33.7905 56.6039 33.4521C56.7186 33.3651 56.7186 33.3651 56.8356 33.2763C57.6949 32.6311 57.6949 32.6311 58.4731 31.8944C58.4731 31.8229 58.4731 31.7513 58.4731 31.6776C58.5337 31.6542 58.5944 31.6307 58.6568 31.6065C59.8213 30.9276 60.653 29.2576 60.9985 28.0179C61.2355 26.9179 61.0656 25.8809 60.4808 24.9113C59.7867 23.9679 58.9228 23.2648 57.911 22.6903C57.8389 22.6494 57.7669 22.6085 57.6926 22.5663C57.239 22.3192 56.8044 22.1748 56.3059 22.0334C56.1685 21.9668 56.0325 21.8973 55.8978 21.8255C55.3778 21.5554 54.8366 21.3988 54.2741 21.241C54.1226 21.196 54.1226 21.196 53.968 21.1502C53.8707 21.1224 53.7733 21.0947 53.673 21.0661C53.5854 21.0411 53.4979 21.016 53.4077 20.9902C53.1424 20.9463 52.9816 20.9685 52.7299 21.0581C52.6941 21.0939 52.6584 21.1296 52.6215 21.1665C52.6215 21.0592 52.6215 20.9519 52.6215 20.8414C49.7852 20.2659 47.0312 20.0532 44.1421 20.0557C44.0158 20.0558 43.8894 20.0559 43.7592 20.056C43.3986 20.0567 43.0381 20.0584 42.6776 20.0608C42.512 20.0615 42.512 20.0615 42.3431 20.0623C42.2425 20.0633 42.1419 20.0643 42.0383 20.0654C41.9498 20.0661 41.8614 20.0668 41.7702 20.0676C41.5669 20.0609 41.5669 20.0609 41.4602 20.1912ZM33.658 25.3926C33.4657 25.4114 33.2728 25.425 33.0798 25.4362C32.3989 25.4884 31.7597 25.6137 31.098 25.7786C30.9247 25.8212 30.9247 25.8212 30.7479 25.8646C28.6201 26.3989 26.4124 26.9961 24.4472 27.9933C24.3651 28.034 24.283 28.0747 24.1984 28.1166C22.1881 29.1186 20.4247 30.2177 18.8123 31.786C18.7326 31.8566 18.6528 31.9271 18.5706 31.9998C15.9871 34.3534 15.4692 39.2653 15.0196 42.5139C15.0078 42.5933 14.996 42.6727 14.9839 42.7545C14.9082 43.291 14.9 43.8158 14.9113 44.3561C14.9747 44.3777 15.0382 44.3993 15.1036 44.4215C17.7036 45.3196 20.0839 46.5461 22.3573 48.0913C22.6209 48.2677 22.8877 48.4381 23.1557 48.6076C23.6441 48.9168 24.1283 49.2316 24.611 49.5495C24.6829 49.5968 24.7548 49.6441 24.8288 49.6929C25.1253 49.8881 25.4216 50.0834 25.7178 50.279C26.5368 50.8195 27.3585 51.3548 28.1904 51.8755C28.2593 51.9186 28.3282 51.9618 28.3993 52.0063C29.1622 52.4812 29.94 52.9262 30.7323 53.3502C30.8202 53.3973 30.9082 53.4444 30.9988 53.4929C34.8266 55.5206 38.9933 56.9693 43.2888 55.6597C47.0376 54.328 50.3208 51.6013 52.7299 48.4739C52.8195 48.3602 52.9093 48.2466 52.9991 48.1331C53.529 47.4589 54.0254 46.7717 54.4895 46.0497C54.6494 45.811 54.8169 45.6073 55.0055 45.3923C55.6142 44.5269 55.1717 42.7679 55.08 41.7418C55.0726 41.6578 55.0652 41.5738 55.0575 41.4872C54.7256 37.7625 54.0323 33.8383 52.2964 30.4857C52.2249 30.4499 52.1534 30.4141 52.0797 30.3773C52.0046 30.1979 51.9327 30.0171 51.863 29.8355C50.558 27.5678 48.5461 26.1495 46.0555 25.4563C43.6643 24.8309 35.6387 23.412 33.658 25.3926ZM70.7181 40.7801C70.353 41.4603 70.1057 42.1429 69.8783 42.8796C69.8441 42.9876 69.8099 43.0956 69.7746 43.2069C69.5963 43.7179 69.5963 43.7179 69.5261 44.2477C69.6818 44.2843 69.8376 44.3203 69.9934 44.3561C70.1236 44.3863 70.1236 44.3863 70.2563 44.417C70.513 44.4747 70.513 44.4747 70.8265 44.4645C71.1841 43.4274 71.5417 42.3904 71.9101 41.3219C71.6686 41.0805 71.5138 41.0302 71.1922 40.9291C71.1036 40.9009 71.0151 40.8727 70.9238 40.8436C70.8559 40.8227 70.7881 40.8017 70.7181 40.7801ZM63.9996 46.9568C63.9996 47.0283 63.9996 47.0998 63.9996 47.1735C63.9281 47.1735 63.8566 47.1735 63.7829 47.1735C63.467 47.8297 63.2405 48.4688 63.0785 49.1782C63.0561 49.2747 63.0336 49.3711 63.0105 49.4705C62.6422 51.1052 62.385 52.7625 62.2658 54.4338C62.8921 54.4009 63.4845 54.2857 64.0877 54.1155C64.2247 54.0788 64.3617 54.042 64.5029 54.0042C65.0388 53.6791 65.1145 53.2785 65.3 52.7C65.3844 52.4733 65.4697 52.2468 65.5556 52.0206C65.6422 51.7844 65.7286 51.548 65.8147 51.3116C65.8815 51.132 65.8815 51.132 65.9497 50.9487C65.9918 50.8331 66.0338 50.7175 66.0771 50.5984C66.1343 50.4427 66.1343 50.4427 66.1926 50.284C66.2971 49.9135 66.3523 49.5995 66.1728 49.2493C66.1095 49.1605 66.1095 49.1605 66.045 49.0699C65.8418 48.6906 65.8418 48.6906 65.896 48.3858C66.1591 48.0021 66.1591 48.0021 66.492 47.9321C66.716 47.9957 66.9255 48.0799 67.1409 48.1687C67.6148 48.361 67.9122 48.3918 68.4086 48.2572C68.7656 48.0416 68.9183 47.8993 69.0512 47.5016C69.1308 47.08 69.131 46.7129 68.9843 46.3066C68.6583 45.8989 68.3084 45.6429 67.7923 45.5481C66.4443 45.4357 64.9686 46.0212 63.9996 46.9568ZM14.0444 45.7648C13.596 46.4446 13.5026 47.0042 13.5026 47.8102C13.5026 48.0404 13.5026 48.0404 13.3942 48.3655C13.1509 48.4748 13.1509 48.4748 12.8524 48.5822C12.6673 48.6825 12.4843 48.7865 12.303 48.8934C12.1979 48.955 12.0929 49.0166 11.9847 49.0801C11.8732 49.146 11.7617 49.2119 11.6469 49.2798C11.4117 49.4181 11.1765 49.5564 10.9412 49.6947C10.8245 49.7633 10.7078 49.832 10.5876 49.9027C10.2885 50.0778 9.98844 50.2509 9.68744 50.4227C7.66889 51.5748 5.74634 52.8629 3.85828 54.2171C4.15041 54.4119 4.42764 54.5372 4.75151 54.6676C5.75415 55.076 6.58333 55.6119 7.43425 56.276C7.53036 56.3502 7.62646 56.4243 7.72548 56.5008C8.10984 56.8208 8.41333 57.1947 8.73461 57.5764C8.8333 57.6838 8.8333 57.6838 8.93398 57.7935C10.6164 59.7168 11.389 62.2735 11.8771 64.7283C12.2285 64.393 12.5128 64.0733 12.7643 63.6582C13.0131 63.2555 13.2675 62.8591 13.5346 62.4683C15.1064 60.1596 16.5216 57.7042 17.7198 55.1811C17.8371 54.9756 17.8371 54.9756 18.0538 54.8673C18.3434 54.8527 18.6306 54.8626 18.9207 54.8673C19.106 55.6625 18.922 56.0777 18.5211 56.7704C18.4726 56.8583 18.424 56.9463 18.374 57.0369C18.1912 57.3666 18.0042 57.6935 17.8127 58.0182C17.5874 58.3694 17.5874 58.3694 17.512 58.7683C21.8154 60.3284 26.3074 61.1531 30.8406 61.6941C31.0013 61.7134 31.0013 61.7134 31.1652 61.7331C31.4475 61.7664 31.7298 61.7985 32.0123 61.8296C32.0899 61.8383 32.1674 61.847 32.2474 61.8559C32.7926 61.9121 33.3275 61.9173 33.8748 61.9109C33.9262 61.7812 33.9776 61.6516 34.0305 61.518C34.3108 60.9614 34.7209 60.6487 35.2835 60.3938C36.0506 60.1606 36.8034 60.1438 37.5997 60.1445C37.7259 60.144 37.8521 60.1435 37.9821 60.1431C38.2477 60.1424 38.5133 60.1424 38.7788 60.1429C39.1833 60.1432 39.5877 60.1406 39.9922 60.1379C40.2512 60.1377 40.5103 60.1376 40.7694 60.1377C40.8893 60.1367 41.0092 60.1357 41.1327 60.1347C41.9645 60.1396 42.7095 60.2115 43.3836 60.7324C43.699 61.1355 43.9364 61.5645 44.1692 62.0192C46.6006 61.9533 48.9976 61.5764 51.3754 61.0846C51.4551 61.0681 51.5349 61.0517 51.6171 61.0347C52.6776 60.8274 52.6776 60.8274 53.7052 60.5021C53.8664 60.2531 53.8664 60.2531 53.9422 59.94C53.9761 59.8221 54.0101 59.7042 54.0451 59.5828C54.1894 58.9949 54.3109 58.4053 54.4197 57.8098C54.4663 57.5624 54.5172 57.3161 54.5687 57.0697C54.9749 55.0935 55.2933 53.0562 55.2231 51.0339C55.2222 50.7495 55.2222 50.7495 55.3306 50.4244C55.3397 50.1848 55.3422 49.945 55.3412 49.7052C55.3407 49.4941 55.3407 49.4941 55.3401 49.2788C55.3392 49.1301 55.3383 48.9815 55.3374 48.8328C55.3368 48.6829 55.3363 48.533 55.3359 48.3831C55.3346 48.016 55.3328 47.649 55.3306 47.2819C55.0813 47.5918 54.8347 47.9027 54.597 48.2216C54.5169 48.3289 54.5169 48.3289 54.4352 48.4384C54.3798 48.5127 54.3244 48.587 54.2673 48.6635C53.4823 49.7119 53.4823 49.7119 53.1701 50.1196C53.1177 50.1882 53.0654 50.2568 53.0114 50.3275C52.7877 50.5927 52.5432 50.8306 52.2964 51.0746C52.158 51.2178 52.0197 51.3611 51.8816 51.5046C50.8255 52.5923 49.7457 53.564 48.5037 54.4338C48.4314 54.4853 48.359 54.5367 48.2844 54.5898C46.4955 55.8497 44.475 56.8906 42.3271 57.3596C42.2374 57.3793 42.1477 57.3989 42.0553 57.4191C38.2148 58.1911 34.3042 56.7796 30.9333 55.0171C30.6454 54.8626 30.6454 54.8626 30.3991 54.819C30.1904 54.7589 30.1904 54.7589 29.9559 54.5701C29.5446 54.2426 29.0962 54.0157 28.6327 53.7701C27.7409 53.2882 26.8964 52.7677 26.0629 52.1919C25.6852 51.9327 25.3029 51.6803 24.9213 51.4268C24.3924 51.0747 23.864 50.7219 23.3365 50.3677C21.0724 48.8474 21.0724 48.8474 18.704 47.4986C18.7397 47.6417 18.7755 47.7847 18.8123 47.9321C18.7408 47.9321 18.6693 47.9321 18.5956 47.9321C18.5956 47.7533 18.5956 47.5745 18.5956 47.3902C16.4235 46.2019 16.4235 46.2019 14.0444 45.7648ZM70.2847 45.8732C70.3115 45.9972 70.3115 45.9972 70.3388 46.1238C70.4698 47.0897 70.4694 47.9392 69.9596 48.799C69.489 49.3768 68.9239 49.5772 68.2258 49.7742C68.0444 49.8446 67.8633 49.9157 67.684 49.991C67.6218 50.5881 67.7215 50.9346 68.067 51.4285C68.3915 51.8126 68.6895 51.9212 69.1837 51.9749C69.6954 51.9958 70.0734 51.9891 70.542 51.7722C71.4064 50.9695 71.9493 50.0724 72.0481 48.8726C72.0744 47.8864 71.9946 47.1078 71.315 46.3409C70.9978 46.0509 70.7116 45.9108 70.2847 45.8732ZM60.7957 48.1755C59.9999 48.3502 59.2112 48.383 58.3986 48.3791C58.2661 48.3797 58.2661 48.3797 58.1309 48.3803C58.0445 48.3802 57.9581 48.3801 57.8691 48.3799C57.7924 48.3798 57.7158 48.3797 57.6368 48.3795C57.3326 48.3623 57.0389 48.3112 56.7393 48.2572C56.7383 48.3391 56.7373 48.421 56.7362 48.5053C56.6798 52.1994 56.3585 55.998 55.3924 59.575C55.3149 59.8752 55.3149 59.8752 55.3306 60.2854C58.2199 61.4729 58.2199 61.4729 61.2906 61.9109C61.2762 61.8337 61.2619 61.7566 61.2472 61.6771C61.0992 60.8418 61.0153 60.014 60.9587 59.1679C60.9419 58.9245 60.9248 58.6811 60.9075 58.4378C60.9003 58.332 60.8932 58.2262 60.8859 58.1172C60.8605 57.7852 60.8605 57.7852 60.7969 57.428C60.7442 56.9978 60.7589 56.5923 60.794 56.1626C60.8002 56.0801 60.8064 55.9977 60.8128 55.9128C60.8333 55.6455 60.8552 55.3783 60.8774 55.1111C60.8848 55.0195 60.8923 54.928 60.8999 54.8336C61.0901 52.5039 61.4187 50.2119 61.9407 47.9321C61.549 47.9321 61.1723 48.0741 60.7957 48.1755ZM66.9254 52.2666C66.0484 54.1438 66.0484 54.1438 65.9502 56.1676C66.0836 56.3683 66.0836 56.3683 66.2752 56.4927C66.6139 56.5199 66.6139 56.5199 66.9254 56.4927C67.0685 56.2066 67.2115 55.9206 67.3589 55.6258C67.2874 55.5901 67.2158 55.5543 67.1421 55.5175C67.2494 55.4817 67.3567 55.4459 67.4672 55.4091C67.6288 55.1272 67.7206 54.815 67.8262 54.5083C67.8575 54.4246 67.8889 54.3408 67.9212 54.2546C67.9498 54.1733 67.9783 54.0921 68.0078 54.0084C68.0341 53.9342 68.0604 53.86 68.0875 53.7835C68.1266 53.5001 68.0514 53.3721 67.9007 53.1335C67.7234 52.9529 67.7234 52.9529 67.5214 52.7948C67.3123 52.6238 67.1167 52.4579 66.9254 52.2666ZM2.77465 55.5175C2.7523 55.6538 2.72995 55.7901 2.70693 55.9306C2.69436 56.0073 2.68178 56.084 2.66883 56.163C2.64508 56.4188 2.64508 56.4188 2.88302 56.7094C3.24061 56.4591 3.59821 56.2088 3.96664 55.9509C3.62368 55.6041 3.62369 55.6041 3.18779 55.5513C2.98329 55.5346 2.98329 55.5346 2.77465 55.5175ZM63.6733 55.6123C63.5502 55.6416 63.5502 55.6416 63.4246 55.6715C63.3394 55.6922 63.2543 55.7129 63.1666 55.7342C63.0802 55.7549 62.9938 55.7755 62.9048 55.7968C62.6917 55.8479 62.4788 55.8993 62.2658 55.9509C62.2604 56.4613 62.2565 56.9716 62.2539 57.482C62.2528 57.6549 62.2514 57.8277 62.2495 58.0006C62.2374 59.1288 62.2365 60.2619 62.4825 61.369C62.5541 61.4406 62.6256 61.5121 62.6993 61.5858C63.4719 60.7309 63.9572 59.8051 64.4331 58.7683C64.4841 58.6609 64.535 58.5535 64.5876 58.4428C64.8918 57.758 64.8896 57.3205 64.6498 56.6011C64.5297 56.2409 64.4782 55.8937 64.4331 55.5175C64.1495 55.5175 63.9453 55.5468 63.6733 55.6123ZM5.14721 56.6917C5.07275 56.7467 4.9983 56.8017 4.92159 56.8584C4.83736 56.9202 4.75313 56.9819 4.66635 57.0455C4.57848 57.1134 4.49062 57.1813 4.4001 57.2513C4.26663 57.3497 4.26663 57.3497 4.13046 57.4502C2.92924 58.3656 1.75492 59.6022 1.4743 61.1523C1.42129 61.921 1.47638 62.7144 1.98733 63.3289C2.75965 64.0383 3.61269 64.3375 4.65703 64.3169C6.60827 64.1661 8.15231 63.1427 9.60151 61.9109C9.53249 61.4134 9.33682 60.994 9.11388 60.5496C9.076 60.4739 9.03813 60.3983 8.99911 60.3203C8.62919 59.6044 8.19581 58.9317 7.65098 58.3349C7.57946 58.3349 7.50794 58.3349 7.43425 58.3349C7.41148 58.2748 7.38872 58.2148 7.36526 58.1529C7.16558 57.813 6.88911 57.5918 6.58767 57.3461C6.53117 57.2982 6.47466 57.2503 6.41645 57.2009C5.84473 56.6914 5.84473 56.6914 5.14721 56.6917ZM16.6451 60.0687C16.5014 60.2488 16.5014 60.2488 16.3632 60.4839C16.2836 60.6137 16.2836 60.6137 16.2023 60.7462C16.1473 60.8377 16.0923 60.9293 16.0355 61.0236C15.9517 61.1591 15.9517 61.1591 15.8662 61.2973C15.547 61.7856 15.547 61.7856 15.4531 62.3443C19.4354 64.3398 23.6385 65.5208 28.0232 66.2454C28.1003 66.2582 28.1774 66.2711 28.2569 66.2843C29.0193 66.4092 29.7437 66.4752 30.5155 66.4621C30.5513 66.4979 30.587 66.5336 30.6239 66.5705C31.4034 66.7028 32.2197 66.723 33.0079 66.6788C33.2762 66.4105 33.2371 65.7819 33.2855 65.4191C33.3006 65.3122 33.3156 65.2054 33.3311 65.0953C33.4071 64.5341 33.4596 63.9942 33.4413 63.4279C33.1455 63.3293 32.9446 63.3011 32.6379 63.2891C32.5466 63.2851 32.4552 63.281 32.3611 63.2768C32.1683 63.2692 31.9756 63.2616 31.7829 63.254C31.6918 63.2499 31.6007 63.2459 31.5069 63.2417C31.4233 63.2384 31.3396 63.2351 31.2535 63.2317C31.0573 63.2112 31.0573 63.2112 30.949 63.1029C30.7008 63.0637 30.4517 63.0308 30.2023 63.0004C30.0405 62.9801 29.8788 62.9596 29.717 62.9391C29.6309 62.9283 29.5447 62.9175 29.456 62.9064C27.3933 62.646 25.3586 62.2844 23.3207 61.8758C23.0582 61.8265 22.7944 61.7841 22.5297 61.7481C22.2307 61.703 21.9815 61.6438 21.6996 61.5401C21.2019 61.3663 20.7002 61.2445 20.1872 61.1252C19.1136 60.8681 18.0845 60.5156 17.051 60.1297C16.8606 60.0576 16.8606 60.0576 16.6451 60.0687ZM35.1988 62.2148C34.6629 63.1802 34.6805 64.6982 34.5453 65.7781C34.5292 65.8997 34.5131 66.0213 34.4966 66.1466C34.4105 66.8745 34.3698 67.4048 34.8229 68.0198C35.1402 68.249 35.3332 68.2286 35.7169 68.1959C35.8242 68.1959 35.9315 68.1959 36.042 68.1959C36.1793 68.194 36.1793 68.194 36.3193 68.1921C36.4222 68.1911 36.5252 68.1901 36.6312 68.1891C36.7853 68.1872 36.7853 68.1872 36.9424 68.1853C37.2034 68.1948 37.4185 68.2295 37.6675 68.3043C37.6675 68.2327 37.6675 68.1612 37.6675 68.0875C37.7271 68.1227 37.7868 68.1579 37.8482 68.1942C38.5325 68.4922 39.3706 68.3296 40.0514 68.0875C40.0872 68.1233 40.123 68.1591 40.1598 68.1959C40.6979 68.2577 41.1257 68.2537 41.6159 68.013C42.2744 67.4188 42.3394 66.7214 42.4747 65.8801C42.5093 65.667 42.5465 65.4544 42.5838 65.2417C42.8898 63.6566 42.8898 63.6566 42.6476 62.1029C42.4613 61.8727 42.2666 61.7181 42.002 61.5858C41.8151 61.5738 41.6278 61.5685 41.4406 61.5666C41.3234 61.5652 41.2062 61.5638 41.0854 61.5624C40.9582 61.5616 40.831 61.5608 40.6999 61.56C40.5695 61.5591 40.4391 61.5582 40.3047 61.5573C40.0281 61.5558 39.7515 61.5546 39.475 61.5538C39.0523 61.5519 38.6298 61.5472 38.2072 61.5424C37.9387 61.5413 37.6701 61.5404 37.4016 61.5396C37.2121 61.5368 37.2121 61.5368 37.0188 61.5339C36.1908 61.5361 35.7864 61.6195 35.1988 62.2148ZM52.7544 62.2282C52.2001 62.4123 51.6313 62.5001 51.057 62.6017C50.8588 62.6368 50.8588 62.6368 50.6565 62.6727C48.5506 63.0368 46.4155 63.3586 44.2776 63.4279C44.0836 64.0452 43.9765 64.6574 43.8848 65.2972C43.8703 65.3944 43.8557 65.4916 43.8408 65.5918C43.7869 65.9587 43.7358 66.3074 43.7358 66.6788C46.0197 66.6387 48.3613 66.1909 50.5626 65.5952C50.6881 65.5646 50.8135 65.534 50.9428 65.5025C51.4757 65.3554 51.8728 65.2419 52.1881 64.7689C52.3063 64.5401 52.3063 64.5401 52.4048 64.2948C52.4603 64.1666 52.4603 64.1666 52.517 64.0358C52.6298 63.7628 52.7344 63.4877 52.8383 63.2112C52.9191 63.0079 53.0004 62.8047 53.0821 62.6017C53.1184 62.5109 53.1547 62.4201 53.1921 62.3265C53.2315 62.2281 53.2315 62.2281 53.2717 62.1276C53.0364 62.1161 53.0364 62.1161 52.7544 62.2282ZM9.78437 63.4279C9.25655 63.8779 8.66442 64.2417 8.08443 64.6199C8.21346 65.007 8.34598 65.0551 8.69794 65.2324C8.76591 65.265 8.83389 65.2975 8.90392 65.3311C8.97246 65.3647 9.04099 65.3983 9.1116 65.4329C9.59609 65.6645 10.0499 65.8254 10.5768 65.9203C10.6448 64.9679 10.3934 64.1211 10.1433 63.2112C9.9934 63.1994 9.9934 63.1994 9.78437 63.4279ZM14.4778 63.4279C14.4356 63.4964 14.3935 63.5648 14.35 63.6354C13.9195 64.3237 13.4652 64.9861 12.9826 65.6388C12.7207 65.9625 12.7207 65.9625 12.6357 66.3537C12.5753 66.3806 12.515 66.4074 12.4528 66.435C12.158 66.5943 11.9208 66.7931 11.6604 67.0039C11.5487 67.0754 11.4369 67.147 11.3218 67.2206C11.0341 67.4207 10.8638 67.573 10.6851 67.8708C10.6851 67.9423 10.6851 68.0139 10.6851 68.0875C10.6136 68.0875 10.5421 68.0875 10.4684 68.0875C10.33 68.2449 10.33 68.2449 10.1907 68.4533C9.19454 69.8209 7.94151 70.9974 6.51994 71.9141C6.45504 71.956 6.39014 71.9979 6.32327 72.0411C5.63639 72.4758 4.91788 72.8334 4.18337 73.1806C4.25489 73.3594 4.32641 73.5382 4.4001 73.7224C4.47161 73.7224 4.54313 73.7224 4.61682 73.7224C4.63861 73.7832 4.6604 73.8439 4.68285 73.9065C4.89193 74.2524 5.18497 74.4503 5.51081 74.6774C5.5782 74.7247 5.64559 74.772 5.71503 74.8207C8.57736 76.7827 11.8983 76.9736 15.2483 76.6182C16.7432 76.466 18.464 76.3128 19.896 76.8649C20.1533 77.0757 20.1533 77.0757 20.3294 77.2984C20.3227 77.5828 20.3227 77.5828 20.2211 77.8402C19.8505 78.0872 19.7944 78.0729 19.3745 78.0163C18.6443 77.9331 17.9209 77.9389 17.1869 77.9486C19.1364 80.093 22.0343 80.7689 24.796 81.0136C27.7913 81.1174 31.0307 79.5262 33.2246 77.6235C33.3518 77.5181 33.3518 77.5181 33.4815 77.4105C34.0418 76.9357 34.5007 76.4148 34.9537 75.8372C35.5183 75.1419 35.5183 75.1419 35.9472 75.0905C36.2588 75.1311 36.2588 75.1311 36.4755 75.3478C36.5275 75.665 36.5326 75.8939 36.3751 76.1808C36.2333 76.378 36.0834 76.5641 35.9269 76.7498C35.8729 76.8162 35.8188 76.8827 35.7632 76.9511C35.3765 77.4208 34.9648 77.8533 34.5249 78.2736C34.5249 78.3094 34.5249 78.3452 34.5249 78.382C34.61 78.3939 34.6951 78.4058 34.7827 78.418C35.4367 78.5167 35.9796 78.6482 36.5838 78.9238C38.4177 79.5499 40.0157 79.7159 41.7785 78.8561C43.7459 77.8529 45.2585 76.1305 46.5532 74.3726C46.5971 74.3142 46.641 74.2558 46.6862 74.1956C47.9474 72.516 49.011 70.6952 50.0091 68.8499C50.1271 68.6331 50.2474 68.4178 50.3683 68.2027C50.4399 68.074 50.5114 67.9453 50.583 67.8166C50.6758 67.6507 50.6758 67.6507 50.7705 67.4814C50.8285 67.3523 50.8285 67.3523 50.8877 67.2206C50.852 67.1491 50.8162 67.0776 50.7794 67.0039C50.6915 67.0225 50.6037 67.041 50.5132 67.0602C50.1803 67.1303 49.8472 67.2002 49.5141 67.2698C49.3019 67.3142 49.0898 67.3591 48.8777 67.4039C48.0873 67.5689 47.2989 67.7131 46.4991 67.8247C46.2293 67.8571 46.2293 67.8571 46.0114 67.9792C45.836 67.9944 45.66 68.0036 45.484 68.0097C45.3791 68.0137 45.2742 68.0178 45.1661 68.0219C45.0562 68.0257 44.9462 68.0295 44.833 68.0334C44.6165 68.0408 44.4001 68.0487 44.1836 68.0571C44.0874 68.0603 43.9912 68.0636 43.892 68.067C43.6415 68.0864 43.43 68.1096 43.194 68.1959C43.0462 68.4104 42.902 68.6274 42.7605 68.8461C41.6097 69.9969 39.5325 69.7297 38.0235 69.7331C37.9404 69.7331 37.8573 69.7331 37.7717 69.7331C37.5164 69.7333 37.2611 69.7353 37.0059 69.7373C34.7254 69.7461 34.7254 69.7461 34.0509 69.1983C33.9852 69.1474 33.9196 69.0966 33.8519 69.0442C33.658 68.8461 33.658 68.8461 33.4747 68.5168C33.2536 68.1696 33.2536 68.1696 32.8894 68.094C32.6951 68.0797 32.6951 68.0797 32.497 68.0651C32.4263 68.0591 32.3557 68.053 32.283 68.0468C32.0574 68.0282 31.8318 68.0138 31.6059 67.9995C31.458 67.988 31.31 67.9762 31.1621 67.9642C30.5905 67.9186 30.0184 67.8811 29.4462 67.8427C29.2545 67.8292 29.2545 67.8292 29.059 67.8154C28.9452 67.8077 28.8314 67.8001 28.7142 67.7922C28.4566 67.7625 28.4566 67.7625 28.3483 67.6541C28.1467 67.6152 27.9439 67.5822 27.7408 67.5517C27.6111 67.5314 27.4813 67.5112 27.3476 67.4904C27.2779 67.4796 27.2081 67.4688 27.1362 67.4577C25.8508 67.2571 24.582 67.0131 23.3162 66.7127C23.1803 66.6805 23.0444 66.6483 22.9044 66.6151C20.4801 66.0307 18.1271 65.1723 15.8865 64.0781C15.6185 63.9526 15.3496 63.829 15.0806 63.7056C14.9065 63.6254 14.9065 63.6254 14.7288 63.5435C14.646 63.5054 14.5632 63.4672 14.4778 63.4279Z" fill="#171717"/>
<path d="M27.3074 87.9906C27.522 87.9906 27.7365 87.9906 27.9576 87.9906C27.9576 88.0621 27.9576 88.1336 27.9576 88.2073C28.1834 88.192 28.4091 88.176 28.6349 88.1599C28.7606 88.1511 28.8863 88.1423 29.0158 88.1332C29.2915 88.1063 29.5353 88.0685 29.7998 87.9906C29.7998 88.0263 29.7998 88.0621 29.7998 88.0989C30.1216 88.1347 30.4434 88.1705 30.775 88.2073C30.8108 88.1358 30.8465 88.0643 30.8834 87.9906C31.3384 87.9879 31.7935 87.9859 32.2485 87.9846C32.4032 87.9841 32.5579 87.9833 32.7126 87.9824C32.9354 87.9811 33.1581 87.9805 33.3808 87.98C33.5817 87.9791 33.5817 87.9791 33.7866 87.9783C34.1343 87.9906 34.1343 87.9906 34.337 88.0437C34.6084 88.1087 34.8599 88.1195 35.1388 88.1277C35.3109 88.1332 35.3109 88.1332 35.4865 88.1387C35.6729 88.144 35.6729 88.144 35.863 88.1493C36.1302 88.1577 36.3974 88.1661 36.6647 88.1745C36.8045 88.1787 36.9444 88.1829 37.0885 88.1873C45.6017 88.448 45.6017 88.448 48.4856 89.0742C48.5624 89.0909 48.6393 89.1076 48.7185 89.1247C49.1439 89.2264 49.4904 89.3613 49.8469 89.616C49.962 89.826 49.962 89.826 49.9552 90.0495C49.6171 90.488 49.2363 90.5982 48.7158 90.7132C48.6469 90.7301 48.578 90.747 48.5069 90.7644C47.2909 91.051 46.0441 91.1799 44.8025 91.2978C44.7301 91.3047 44.6577 91.3116 44.583 91.3187C43.0459 91.4644 41.508 91.5683 39.9655 91.641C39.7524 91.6513 39.7524 91.6513 39.535 91.6618C36.4695 91.8061 33.4032 91.8124 30.3348 91.8104C30.2181 91.8103 30.1014 91.8103 29.9811 91.8103C26.3396 91.8087 22.7024 91.7993 19.0718 91.4853C18.9627 91.4761 18.8535 91.467 18.7411 91.4575C16.9142 91.303 15.1116 91.0731 13.3066 90.7518C13.0533 90.7082 12.8009 90.6715 12.546 90.6395C12.245 90.5913 12.245 90.5913 12.0418 90.4355C11.9199 90.2662 11.9199 90.2662 11.8115 90.0495C11.9667 89.646 12.1054 89.523 12.4956 89.3316C13.658 88.9554 14.8662 88.796 16.0783 88.6882C16.2237 88.6747 16.369 88.6613 16.5143 88.6478C18.1231 88.5016 19.7345 88.4022 21.3475 88.3157C21.4632 88.3092 21.5789 88.3028 21.6981 88.2962C23.568 88.1947 25.4354 88.1952 27.3074 88.2073C27.3074 88.1358 27.3074 88.0643 27.3074 87.9906Z" fill="#464647" fill-opacity="0.5"/>
<path d="M77.8045 21.2391C77.8045 21.3106 77.8045 21.3821 77.8045 21.4558C77.9229 21.4782 78.0414 21.5005 78.1634 21.5235C79.1885 21.7825 80.0376 22.4165 80.8386 23.0813C80.9016 23.1285 80.9646 23.1757 81.0296 23.2243C82.6975 24.523 83.7349 26.677 84.0895 28.7161C84.1147 28.8532 84.1147 28.8532 84.1403 28.993C84.3577 30.5784 84.0417 32.2354 83.4394 33.7008C83.4005 33.7969 83.3617 33.893 83.3217 33.992C82.4064 36.0174 80.596 37.6251 78.5559 38.4511C76.1242 39.3517 73.632 39.3053 71.2384 38.3062C69.0864 37.2198 67.3862 35.4282 66.5609 33.1486C65.8549 30.9455 65.8312 28.3544 66.798 26.2238C67.9661 23.9922 69.7479 22.1641 72.1944 21.3783C72.7228 21.2293 73.255 21.12 73.7951 21.0224C73.9296 20.996 73.9296 20.996 74.0668 20.969C75.2768 20.7804 76.6163 21.0073 77.8045 21.2391ZM69.4606 24.9234C69.4606 24.9949 69.4606 25.0665 69.4606 25.1402C69.389 25.1402 69.3175 25.1402 69.2438 25.1402C67.9444 26.7178 67.3949 28.7544 67.5316 30.77C67.6871 32.3768 68.4122 33.8986 69.4606 35.1095C69.5238 35.1831 69.5871 35.2568 69.6523 35.3326C70.9522 36.7365 72.829 37.4911 74.7115 37.6294C76.6807 37.6933 78.667 37.0631 80.1343 35.7191C81.7145 34.1965 82.5665 32.5056 82.6804 30.3022C82.6823 28.5351 82.1746 27.0122 81.1637 25.5736C81.0565 25.4127 81.0565 25.4127 80.947 25.2485C80.8755 25.2485 80.804 25.2485 80.7303 25.2485C80.7051 25.1872 80.68 25.1259 80.6541 25.0627C80.4781 24.7526 80.2642 24.5583 79.9988 24.3207C79.9078 24.2378 79.8167 24.155 79.7228 24.0696C79.4197 23.8317 79.1281 23.678 78.7798 23.5147C78.6681 23.4533 78.5565 23.3918 78.4415 23.3285C75.4448 21.7189 71.7316 22.3685 69.4606 24.9234Z" fill="#171717"/>
<path d="M46.8127 33.159C47.4351 33.5498 47.6865 34.0684 47.8667 34.7629C48.0786 35.8518 48.0614 36.8066 47.52 37.7936C47.179 38.2917 46.7238 38.6753 46.1625 38.9022C45.3257 39.005 44.7073 38.9171 43.9953 38.4688C43.7592 38.2327 43.6491 38.022 43.5009 37.7238C43.4303 37.5834 43.4303 37.5834 43.3582 37.4402C42.9825 36.5998 42.9892 35.4529 43.2503 34.5745C43.5494 33.8371 43.9862 33.2218 44.7314 32.9012C45.4803 32.6905 46.1406 32.79 46.8127 33.159Z" fill="#171717"/>
<path d="M32.2075 33.0176C32.9473 33.4038 33.3427 34.0527 33.6221 34.809C33.9085 35.9022 33.6782 37.0007 33.1252 37.9676C32.746 38.524 32.3091 38.7824 31.6623 38.9496C30.9841 39.0627 30.4915 38.9065 29.9107 38.5564C29.2684 38.0767 29.0322 37.4373 28.8753 36.6702C28.7711 35.8664 28.8215 35.0232 29.0412 34.2426C29.2601 33.995 29.2601 33.995 29.4747 33.8092C29.5104 33.7377 29.5462 33.6661 29.583 33.5924C29.6546 33.5924 29.7261 33.5924 29.7998 33.5924C29.7998 33.5209 29.7998 33.4494 29.7998 33.3757C30.512 32.8457 31.3528 32.7498 32.2075 33.0176Z" fill="#171717"/>
<path d="M37.1834 62.2788C37.3142 62.2773 37.3142 62.2773 37.4476 62.2757C37.5874 62.2759 37.5874 62.2759 37.7301 62.276C37.8752 62.2753 37.8752 62.2753 38.0232 62.2746C38.2275 62.274 38.4318 62.2739 38.6361 62.2744C38.9481 62.2747 39.2601 62.2722 39.5721 62.2694C39.7708 62.2692 39.9696 62.2691 40.1683 62.2692C40.2613 62.2682 40.3544 62.2672 40.4502 62.2662C40.9633 62.2702 41.3021 62.3018 41.7197 62.6337C42.2552 63.3651 41.8046 64.8229 41.679 65.6746C41.6606 65.8061 41.6606 65.8061 41.6417 65.9403C41.5668 66.4173 41.4868 66.7977 41.1779 67.1849C40.8749 67.3676 40.6478 67.4291 40.2959 67.4314C40.2088 67.4324 40.1216 67.4335 40.0318 67.4345C39.8919 67.4344 39.8919 67.4344 39.7492 67.4342C39.6042 67.4349 39.6042 67.4349 39.4562 67.4356C39.2519 67.4363 39.0476 67.4363 38.8433 67.4359C38.5312 67.4355 38.2193 67.4381 37.9073 67.4408C37.7086 67.441 37.5098 67.4411 37.3111 67.441C37.1715 67.4425 37.1715 67.4425 37.0292 67.444C36.5178 67.4401 36.1722 67.4128 35.7597 67.0766C35.3701 66.4921 35.5871 65.6985 35.6514 65.0177C35.6581 64.943 35.6648 64.8683 35.6717 64.7914C35.7505 63.9578 35.8312 63.2309 36.3015 62.5253C36.6012 62.3363 36.8319 62.2811 37.1834 62.2788ZM37.3852 63.7173C37.2132 64.2331 37.1095 64.689 37.0465 65.2208C37.0152 65.4756 36.9839 65.7304 36.9517 65.9929C38.0245 65.9929 39.0973 65.9929 40.2026 65.9929C40.3868 64.9977 40.3868 64.9977 40.4193 64.0424C40.4551 63.9351 40.4908 63.8278 40.5277 63.7173C39.4906 63.7173 38.4536 63.7173 37.3852 63.7173Z" fill="#171717"/>
<path d="M37.8186 40.311C39.757 40.2256 41.4704 40.5167 42.9997 41.8145C43.7063 42.4781 44.3666 43.2407 44.4626 44.2391C44.4287 44.5371 44.4287 44.5371 44.212 44.8622C44.0012 44.9176 44.0012 44.9176 43.765 44.9367C43.5572 44.9535 43.5572 44.9535 43.3451 44.9706C43.2915 44.87 43.2378 44.7694 43.1826 44.6658C42.4757 43.406 42.4757 43.406 41.2862 42.6949C41.2348 42.6428 41.1834 42.5907 41.1305 42.5371C40.6057 42.0189 39.7203 42.007 39.0242 41.9974C37.8425 42.0066 36.7708 42.3516 35.8681 43.1284C35.3852 43.6399 35.0937 44.2163 34.8247 44.8618C34.6761 45.0789 34.6761 45.0789 34.4035 45.1691C34.0898 45.1903 33.958 45.1479 33.7008 44.9706C33.4336 44.5698 33.4557 44.4047 33.5214 43.9441C33.7767 42.9607 34.557 42.013 35.4174 41.49C36.1904 41.0621 36.9891 40.7208 37.8186 40.4193C37.8186 40.3836 37.8186 40.3478 37.8186 40.311Z" fill="#171717"/>
<path d="M32.8068 28.8245C33.159 28.9329 33.159 28.9329 33.3757 29.2579C33.4152 29.5744 33.4094 29.7419 33.2479 30.0194C32.2927 31.0956 31.0381 31.6653 29.6169 31.8519C29.059 31.8842 28.5499 31.8302 28.066 31.5336C27.8695 31.222 27.8695 31.222 27.8492 30.8834C27.9915 30.5786 27.9915 30.5786 28.2827 30.3416C28.6166 30.2833 28.9216 30.2528 29.2579 30.2332C30.4109 30.1294 31.2452 29.8493 32.0957 29.048C32.4005 28.8245 32.4005 28.8245 32.8068 28.8245Z" fill="#171717"/>
<path d="M44.3204 28.1743C44.4355 28.3843 44.4355 28.3843 44.5371 28.6078C44.7327 28.7195 44.7327 28.7195 44.9706 28.8245C45.1013 28.8918 45.1013 28.8918 45.2347 28.9604C45.3263 29.0072 45.418 29.054 45.5124 29.1022C45.604 29.1493 45.6956 29.1963 45.79 29.2448C46.3691 29.5112 46.9304 29.4998 47.5611 29.5208C47.9583 29.5946 48.0933 29.693 48.3298 30.0165C48.3298 30.4206 48.3143 30.6679 48.0453 30.9782C47.4452 31.2625 46.9001 31.2126 46.2709 31.0595C45.7659 30.9389 45.2689 30.8421 44.7538 30.775C44.7538 30.7035 44.7538 30.632 44.7538 30.5583C44.553 30.4049 44.553 30.4049 44.3001 30.2535C43.3086 29.6071 43.3086 29.6071 43.1216 28.9803C43.1284 28.6078 43.1284 28.6078 43.3248 28.3504C43.7027 28.0697 43.8667 28.0269 44.3204 28.1743Z" fill="#171717"/>
<path d="M29.2579 67.9435C29.6914 68.0518 29.6914 68.0518 29.6914 68.0518L29.2579 67.9435Z" fill="#6C6B6A"/>
<path d="M60.6832 57.9741C60.7915 58.4075 60.7915 58.4075 60.7915 58.4075L60.6832 57.9741Z" fill="#171717"/>
<path d="M55.0483 50.9305C55.1566 51.364 55.1566 51.364 55.1566 51.364L55.0483 50.9305Z" fill="#6B6A6D"/>
<path d="M61.1166 50.7138C61.225 51.1472 61.225 51.1472 61.225 51.1472L61.1166 50.7138Z" fill="#6D6C6E"/>
<path d="M55.0483 44.212C55.1566 44.6455 55.1566 44.6455 55.1566 44.6455L55.0483 44.212Z" fill="#6B6A6D"/>
<path d="M15.0624 43.7786C15.1708 44.212 15.1708 44.212 15.1708 44.212L15.0624 43.7786Z" fill="#636363"/>
<path d="M35.6514 87.9906C35.9764 88.0989 35.9764 88.0989 35.9764 88.0989L35.6514 87.9906Z" fill="#656565"/>
<path d="M13.7621 78.3463C14.0872 78.4546 14.0872 78.4546 14.0872 78.4546L13.7621 78.3463Z" fill="#6B6A6A"/>
<path d="M13.1119 78.3463C13.437 78.4546 13.437 78.4546 13.437 78.4546L13.1119 78.3463Z" fill="#666566"/>
<path d="M19.1802 63.7173C19.5053 63.8257 19.5053 63.8257 19.5053 63.8257L19.1802 63.7173Z" fill="#696968"/>
<path d="M24.7067 62.3086C25.0318 62.417 25.0318 62.417 25.0318 62.417L24.7067 62.3086Z" fill="#6E6D6E"/>
<path d="M38.7939 62.0919C39.119 62.2002 39.119 62.2002 39.119 62.2002L38.7939 62.0919Z" fill="#6C6C6D"/>
<path d="M39.9859 55.9152C40.311 56.0236 40.311 56.0236 40.311 56.0236L39.9859 55.9152Z" fill="#6D6D6C"/>
<path d="M31.7503 55.5901C32.0754 55.6985 32.0754 55.6985 32.0754 55.6985L31.7503 55.5901Z" fill="#6B6B6C"/>
<path d="M67.1849 43.7786C67.51 43.8869 67.51 43.8869 67.51 43.8869L67.1849 43.7786Z" fill="#6D6D6D"/>
<path d="M19.2886 29.0412C19.6137 29.1496 19.6137 29.1496 19.6137 29.1496L19.2886 29.0412Z" fill="#717170"/>
<path d="M76.7209 22.8645C77.0459 22.9729 77.0459 22.9729 77.0459 22.9729L76.7209 22.8645Z" fill="#6B6C6D"/>
<path d="M45.5124 20.1555C45.8374 20.2638 45.8374 20.2638 45.8374 20.2638L45.5124 20.1555Z" fill="#6B6A6A"/>
<path d="M26.874 91.8916C27.0907 92 27.0907 92 27.0907 92L26.874 91.8916Z" fill="#616261"/>
<path d="M25.5736 91.8916C25.7903 92 25.7903 92 25.7903 92L25.5736 91.8916Z" fill="#646465"/>
<path d="M22.8645 91.7833C23.0813 91.8916 23.0813 91.8916 23.0813 91.8916L22.8645 91.7833Z" fill="#656565"/>
<path d="M15.1708 91.1331C15.3875 91.2414 15.3875 91.2414 15.3875 91.2414L15.1708 91.1331Z" fill="#646464"/>
<path d="M14.4122 91.0247C14.629 91.1331 14.629 91.1331 14.629 91.1331L14.4122 91.0247Z" fill="#646465"/>
<path d="M25.2485 87.9906C25.4653 88.0989 25.4653 88.0989 25.4653 88.0989L25.2485 87.9906Z" fill="#67696A"/>
<path d="M39.8775 80.947C40.0942 81.0554 40.0942 81.0554 40.0942 81.0554L39.8775 80.947Z" fill="#666667"/>
<path d="M21.3475 80.1884C21.5642 80.2968 21.5642 80.2968 21.5642 80.2968L21.3475 80.1884Z" fill="#666666"/>
<path d="M35.9764 78.4547C36.1932 78.563 36.1932 78.563 36.1932 78.563L35.9764 78.4547Z" fill="#696969"/>
<path d="M18.7468 78.1296C18.9635 78.2379 18.9635 78.2379 18.9635 78.2379L18.7468 78.1296Z" fill="#6F6E6E"/>
<path d="M10.1861 78.1296C10.4028 78.2379 10.4028 78.2379 10.4028 78.2379L10.1861 78.1296Z" fill="#686868"/>
<path d="M15.6042 76.2874C15.821 76.3958 15.821 76.3958 15.821 76.3958L15.6042 76.2874Z" fill="#6A686A"/>
<path d="M5.41814 70.6525C5.63486 70.7609 5.63486 70.7609 5.63486 70.7609L5.41814 70.6525Z" fill="#666767"/>
<path d="M34.2426 69.4605C34.4594 69.5689 34.4594 69.5689 34.4594 69.5689L34.2426 69.4605Z" fill="#696A69"/>
<path d="M37.3852 68.0518C37.6019 68.1602 37.6019 68.1602 37.6019 68.1602L37.3852 68.0518Z" fill="#6A696A"/>
<path d="M49.8469 65.4511C50.0636 65.5595 50.0636 65.5595 50.0636 65.5595L49.8469 65.4511Z" fill="#6D6C6D"/>
<path d="M57.649 62.7421C57.8657 62.8504 57.8657 62.8504 57.8657 62.8504L57.649 62.7421Z" fill="#676568"/>
<path d="M50.8221 62.7421C51.0389 62.8504 51.0389 62.8504 51.0389 62.8504L50.8221 62.7421Z" fill="#171717"/>
<path d="M56.7821 62.5253C56.9988 62.6337 56.9988 62.6337 56.9988 62.6337L56.7821 62.5253Z" fill="#6C6E6D"/>
<path d="M41.0695 62.0919C41.2862 62.2002 41.2862 62.2002 41.2862 62.2002L41.0695 62.0919Z" fill="#676768"/>
<path d="M40.2026 62.0919C40.4193 62.2002 40.4193 62.2002 40.4193 62.2002L40.2026 62.0919Z" fill="#6B696A"/>
<path d="M39.8775 62.0919C40.0942 62.2002 40.0942 62.2002 40.0942 62.2002L39.8775 62.0919Z" fill="#6A6A6B"/>
<path d="M38.2521 61.8752C38.4688 61.9835 38.4688 61.9835 38.4688 61.9835L38.2521 61.8752Z" fill="#69686A"/>
<path d="M40.311 61.6584C40.5277 61.7668 40.5277 61.7668 40.5277 61.7668L40.311 61.6584Z" fill="#171717"/>
<path d="M36.9517 61.6584C37.1684 61.7668 37.1684 61.7668 37.1684 61.7668L36.9517 61.6584Z" fill="#6D6B6E"/>
<path d="M36.1932 61.6584C36.4099 61.7668 36.4099 61.7668 36.4099 61.7668L36.1932 61.6584Z" fill="#6C6B6D"/>
<path d="M9.10248 61.4417C9.3192 61.5501 9.3192 61.5501 9.3192 61.5501L9.10248 61.4417Z" fill="#171717"/>
<path d="M8.34393 59.7079C8.56066 59.8162 8.56066 59.8162 8.56066 59.8162L8.34393 59.7079Z" fill="#6C6C6B"/>
<path d="M34.351 56.6737C34.5677 56.7821 34.5677 56.7821 34.5677 56.7821L34.351 56.6737Z" fill="#6D6B6D"/>
<path d="M39.5524 55.9152C39.7691 56.0236 39.7691 56.0236 39.7691 56.0236L39.5524 55.9152Z" fill="#6F6E6E"/>
<path d="M63.9341 55.6985C64.1508 55.8068 64.1508 55.8068 64.1508 55.8068L63.9341 55.6985Z" fill="#6D6B6B"/>
<path d="M4.33452 54.1814C4.55124 54.2898 4.55124 54.2898 4.55124 54.2898L4.33452 54.1814Z" fill="#696768"/>
<path d="M3.35925 52.5559C3.57598 52.6643 3.57598 52.6643 3.57598 52.6643L3.35925 52.5559Z" fill="#656566"/>
<path d="M26.0071 52.3392C26.2238 52.4476 26.2238 52.4476 26.2238 52.4476L26.0071 52.3392Z" fill="#696A69"/>
<path d="M20.8056 48.8716C21.0224 48.98 21.0224 48.98 21.0224 48.98L20.8056 48.8716Z" fill="#6B6B6C"/>
<path d="M65.5595 46.0542C65.7762 46.1625 65.7762 46.1625 65.7762 46.1625L65.5595 46.0542Z" fill="#6D6C6E"/>
<path d="M66.1013 43.9953C66.318 44.1037 66.318 44.1037 66.318 44.1037L66.1013 43.9953Z" fill="#6C6C6B"/>
<path d="M40.0942 40.3109C40.3109 40.4193 40.3109 40.4193 40.3109 40.4193L40.0942 40.3109Z" fill="#676869"/>
<path d="M81.0554 33.5925C81.2721 33.7008 81.2721 33.7008 81.2721 33.7008L81.0554 33.5925Z" fill="#696B6A"/>
<path d="M63.7173 33.4841C63.934 33.5925 63.934 33.5925 63.934 33.5925L63.7173 33.4841Z" fill="#69696B"/>
<path d="M31.6419 32.7256C31.8587 32.8339 31.8587 32.8339 31.8587 32.8339L31.6419 32.7256Z" fill="#696969"/>
<path d="M65.2344 31.7503C65.4511 31.8587 65.4511 31.8587 65.4511 31.8587L65.2344 31.7503Z" fill="#676669"/>
<path d="M15.6042 28.0659C15.821 28.1743 15.821 28.1743 15.821 28.1743L15.6042 28.0659Z" fill="#6D6B6D"/>
<path d="M23.0813 26.7656C23.298 26.874 23.298 26.874 23.298 26.874L23.0813 26.7656Z" fill="#171717"/>
<path d="M17.5548 23.7314C17.7715 23.8398 17.7715 23.8398 17.7715 23.8398L17.5548 23.7314Z" fill="#6C6A6A"/>
<path d="M40.9611 22.9729C41.1779 23.0813 41.1779 23.0813 41.1779 23.0813L40.9611 22.9729Z" fill="#6E6E6E"/>
<path d="M40.0942 22.9729C40.3109 23.0813 40.3109 23.0813 40.3109 23.0813L40.0942 22.9729Z" fill="#707070"/>
<path d="M57.649 22.8645C57.8657 22.9729 57.8657 22.9729 57.8657 22.9729L57.649 22.8645Z" fill="#6B6A6E"/>
<path d="M57.3239 22.5395C57.5406 22.6478 57.5406 22.6478 57.5406 22.6478L57.3239 22.5395Z" fill="#171717"/>
<path d="M35.2179 20.914C35.4346 21.0224 35.4346 21.0224 35.4346 21.0224L35.2179 20.914Z" fill="#6A6A6B"/>
<path d="M29.0412 20.3722C29.258 20.4806 29.258 20.4806 29.258 20.4806L29.0412 20.3722Z" fill="#171717"/>
<path d="M76.3958 20.1555C76.6125 20.2638 76.6125 20.2638 76.6125 20.2638L76.3958 20.1555Z" fill="#6B6C6B"/>
<path d="M46.3793 20.1555C46.596 20.2638 46.596 20.2638 46.596 20.2638L46.3793 20.1555Z" fill="#6C6B6D"/>
<path d="M10.9446 19.3969C11.1614 19.5053 11.1614 19.5053 11.1614 19.5053L10.9446 19.3969Z" fill="#171717"/>
<path d="M71.6278 18.6384C71.8445 18.7468 71.8445 18.7468 71.8445 18.7468L71.6278 18.6384Z" fill="#666868"/>
<path d="M49.9552 18.6384C50.172 18.7468 50.172 18.7468 50.172 18.7468L49.9552 18.6384Z" fill="#69696A"/>
<path d="M37.8186 18.6384C38.0353 18.7468 38.0353 18.7468 38.0353 18.7468L37.8186 18.6384Z" fill="#6B6B6A"/>
<path d="M16.5795 17.6631C16.7962 17.7715 16.7962 17.7715 16.7962 17.7715L16.5795 17.6631Z" fill="#6B6A6A"/>
<path d="M37.1684 16.6879C37.3852 16.7962 37.3852 16.7962 37.3852 16.7962L37.1684 16.6879Z" fill="#696A6B"/>
<path d="M36.3015 16.6879C36.5183 16.7962 36.5183 16.7962 36.5183 16.7962L36.3015 16.6879Z" fill="#6B6B6A"/>
<path d="M40.311 16.5795C40.5277 16.6879 40.5277 16.6879 40.5277 16.6879L40.311 16.5795Z" fill="#6C6C6B"/>
<path d="M33.3757 15.1708C33.5925 15.2791 33.5925 15.2791 33.5925 15.2791L33.3757 15.1708Z" fill="#6A6C6C"/>
<path d="M6.28503 14.5206C6.50176 14.629 6.50176 14.629 6.50176 14.629L6.28503 14.5206Z" fill="#646564"/>
<path d="M24.5984 1.62543C24.8151 1.73379 24.8151 1.73379 24.8151 1.73379L24.5984 1.62543Z" fill="#686868"/>
</svg>
