<svg width="111" height="107" viewBox="0 0 111 107" fill="none" xmlns="http://www.w3.org/2000/svg">
<g clip-path="url(#clip0_3938_54)">
<path d="M51.3002 23.0104C43.8402 24.3104 40.9802 35.4904 46.5402 40.4104C51.9202 45.1704 60.8902 41.7504 61.9602 34.7204C62.9802 28.0104 58.4902 21.7504 51.3002 23.0104ZM57.2202 33.5004C56.0102 33.6104 55.8202 30.8504 56.7302 30.5404C58.2802 30.0204 58.4602 33.3804 57.2202 33.5004Z" fill="#010101"/>
<path d="M81.4202 22.8698C71.9802 23.8398 71.7702 40.6598 82.0702 41.7098C94.8002 43.0098 93.7202 21.5998 81.4202 22.8698ZM82.6502 33.1098C81.0502 33.6998 80.8702 30.4998 81.9302 30.1998C83.3702 30.1998 83.4302 32.2098 82.6502 33.1098Z" fill="#010101"/>
<path d="M52.7802 19.5399C53.7502 19.2999 54.8602 19.2399 55.7902 19.6299C56.7202 20.0199 57.1402 21.2699 58.0302 19.7799C57.9102 18.5799 56.5102 17.9499 55.4702 17.7599C54.0402 17.4999 50.0702 17.9099 49.7002 19.6499C49.2802 21.6499 51.9902 19.7399 52.7802 19.5399Z" fill="#010101"/>
<path d="M79.9196 20.3497C80.2096 20.4097 82.1296 19.5897 82.9796 19.5597C83.4196 19.5397 84.5896 19.8597 84.9896 20.0497C85.5896 20.3397 86.8696 21.8397 87.3696 20.5997C87.9396 19.1897 84.5796 18.0297 83.5096 17.9397C82.4396 17.8397 81.0896 17.9797 80.1096 18.4397C79.1796 18.8797 79.0296 20.1597 79.9196 20.3497Z" fill="#010101"/>
<path d="M101.32 100.82C101.11 98.5999 99.5095 96.4999 97.8495 95.0899C97.5495 94.8399 96.5295 94.3099 96.4195 94.1299C96.0095 93.4399 96.6595 89.9399 96.8995 89.0099C97.4195 86.9799 98.4295 84.95 98.9795 82.9399C99.5295 80.9599 99.7795 78.8999 100.02 76.8599C100.43 76.8699 100.81 76.7999 101.2 76.6799C108.2 74.7099 111.41 67.8199 109.68 60.8599C108.56 56.3499 104.82 52.5399 102.73 48.4599C106.7 47.5599 103.99 45.7999 103.02 44.0099C101.02 40.3199 101.01 33.4599 100.1 29.1799C98.0795 19.6199 91.8295 10.0699 82.8595 5.80995C81.7295 5.26995 80.4195 4.79995 79.3295 4.30995C79.1695 4.23995 78.7895 4.13995 78.7695 3.99995C78.7695 3.93995 79.0595 3.28995 79.0895 2.87995C79.2795 0.159947 77.6195 -0.690053 75.2895 0.509947C71.6295 2.38995 71.2495 2.01995 67.1895 1.98995C50.9995 1.87995 38.7495 6.76995 31.0595 21.6599C29.6295 24.4299 28.6895 27.1799 26.8995 29.8099C26.2695 30.7399 25.2595 31.1699 25.3995 32.4399C25.5695 33.9799 27.0895 33.9699 28.2595 34.2099C27.3095 37.7999 27.0895 41.3899 25.9095 44.9699C25.8795 45.0599 25.8495 45.1499 25.8195 45.2399C25.7595 45.4299 25.6995 45.6099 25.6395 45.7999C25.5895 45.9599 25.5295 46.1199 25.4795 46.2899C25.4495 46.3699 25.4195 46.4399 25.3895 46.5099C25.3595 46.5799 25.3395 46.6599 25.3095 46.7299C25.2595 46.8799 25.1995 47.0299 25.1395 47.1799C25.0195 47.4799 24.8895 47.7799 24.7595 48.0699C24.6195 48.3599 24.4795 48.6499 24.3195 48.9399C24.1695 49.2299 24.0095 49.5199 23.8395 49.7999C23.6695 50.0899 23.4995 50.3699 23.3195 50.6499C23.1395 50.9299 22.9595 51.2099 22.7795 51.4899C22.5895 51.7699 22.4095 52.0499 22.2195 52.3299C22.0295 52.6099 21.8395 52.8799 21.6495 53.1599C19.5995 56.1599 17.4795 59.2499 16.9995 63.2399C16.9595 63.5999 17.0895 63.9499 17.3595 64.1899C17.6295 64.4299 17.9995 64.52 18.3495 64.4399C18.5595 64.3899 18.7795 64.34 18.9895 64.2999C18.9395 64.7199 18.8895 65.1399 18.8395 65.5499C18.6395 67.1799 18.5695 68.7599 18.6295 70.3999C18.6595 71.34 18.7295 72.2799 18.8595 73.2199C18.9795 74.1099 19.1495 74.9899 19.3895 75.8499C19.5895 76.5399 19.8395 77.2199 20.1595 77.8699C16.9895 77.02 14.6795 74.4699 14.0595 71.41H14.0295C14.0295 71.41 13.9695 71.3899 13.9495 71.3899L9.18953 70.3699L8.77953 70.2799L8.52953 70.2299C8.52953 70.2299 8.52953 70.2499 8.52953 70.2899C8.64953 71.5799 8.95953 72.85 9.43953 74.0499C12.1095 80.6799 20.2095 84.0799 26.9195 82.1099C27.4595 82.5999 27.8795 83.2599 29.1795 83.5099C29.5495 83.5799 30.2995 83.4699 30.4795 83.5699C30.6495 83.6699 30.8695 84.2999 31.1095 85.1399C28.2295 89.1399 23.3795 90.8699 18.2495 89.7799C13.1195 88.6699 9.33953 84.7 8.35953 79.8699H8.30953L8.21953 79.8399H8.18953L1.00953 78.2999L0.389531 78.1699L0.0195312 78.0899C0.0195312 78.0899 0.0195312 78.1199 0.0195312 78.1399C0.0195312 78.1399 0.0195312 78.1499 0.0195312 78.16C0.459531 80.2499 0.849531 81.1799 1.58953 83.0099C6.34953 94.8199 21.5895 99.3599 32.2695 93.3699C32.0995 95.8599 31.5695 98.2899 31.3195 100.81C29.1495 101.13 26.4995 101.25 24.4495 102.01C21.8095 102.99 24.4495 103.64 25.5995 104.02C29.4995 105.33 34.2495 105.34 38.4295 105.61C53.8095 106.61 69.8295 106.44 85.2495 105.92C91.3295 105.71 100.55 105.82 106.08 104.02C106.74 103.81 108.63 103.59 108.12 102.57C107.64 101.6 102.49 101.19 101.35 100.78L101.32 100.82ZM69.8095 100.52H61.2095C61.2495 99.0399 59.2095 97.4999 58.9895 96.41C58.8795 95.89 59.0895 91.7299 59.2695 91.5699L63.9795 92.0599C66.2995 92.0299 68.6295 92.1499 70.9395 91.8899L69.8095 100.52ZM98.5095 101.33C97.5195 102.46 92.6695 102.52 91.1495 102.6C85.9695 102.87 79.3295 103.01 74.2495 101.93C71.0195 101.24 72.5495 98.8199 72.8295 96.4299C73.0195 94.8699 73.0895 93.2899 73.2395 91.7199C73.3895 91.5099 75.3195 91.2899 75.7295 91.1799C76.7395 90.8999 79.7895 89.8699 80.0195 88.7399C80.3795 86.8599 77.0295 88.4299 76.2095 88.6199C71.0495 89.81 65.7395 89.8899 60.4895 89.3199C59.4495 89.2099 56.3295 88.0599 56.2195 89.7399C56.1495 90.8599 57.1895 90.8899 57.1995 91.0299C57.2195 91.2599 56.7595 92.7499 56.7195 93.2599C56.6495 94.1399 56.5795 97.1999 56.9595 97.8099C57.1695 98.1499 57.6395 98.4299 57.8995 98.7899C60.8695 102.87 57.7495 103.2 54.2395 103.42C49.0195 103.75 42.1395 103.76 36.9795 103.09C36.0795 102.97 33.9595 102.69 33.7395 101.7C33.3795 100.08 34.3795 96.6799 34.4995 94.8599C34.7695 90.9699 34.1895 87.0099 32.9095 83.3499C32.9095 83.0299 34.2495 81.7199 34.5095 81.5999C35.0495 81.3399 36.0795 81.2999 36.7795 80.9999C40.8795 79.2099 38.9695 71.9299 38.8195 68.4799C38.6295 64.2499 39.2395 59.9299 40.2695 55.8399C40.3495 54.6899 38.9095 54.1499 38.3095 55.1699C38.0595 55.5899 37.7295 57.0799 37.5895 57.6499C36.0595 64.1199 36.9395 68.2399 37.2195 74.5599C37.2895 76.0899 37.0995 78.9599 35.0495 79.1099C32.9895 79.2599 32.4695 76.5899 31.4795 75.6999C31.1795 75.4299 30.4495 76.0999 30.3795 76.3399C30.0295 77.4299 31.5895 79.8199 32.2695 80.7099C30.3095 81.6899 28.7795 81.17 27.4795 79.5099C26.9395 78.8299 25.9695 76.2399 25.4495 76.0999C23.5795 75.5999 25.0695 78.9899 24.9295 79.1099C22.7595 78.9199 21.9095 76.34 21.4595 74.5099C20.7895 71.7799 20.7595 68.8499 21.0195 66.0599L21.3495 63.3299C21.3795 63.1199 21.3395 62.8999 21.2395 62.7099C20.9495 62.1199 20.3895 61.9499 19.4895 62.0399C20.1895 59.2699 21.7995 56.9099 23.4895 54.4399C24.7195 52.6399 26.0595 50.7999 26.9695 48.7499C27.8095 46.4899 28.6995 44.3099 29.2195 41.9499C29.7595 39.4799 30.0995 36.9699 30.5995 34.4899C30.7195 33.8899 31.4295 32.0899 31.1395 31.6399C30.8095 31.1199 28.7195 32.1399 28.1295 31.6999C30.8095 29.0799 31.7395 25.2599 33.4995 22.0399C39.1195 11.7799 48.6995 5.35995 60.4895 4.58995C63.4995 4.38995 69.6095 4.88995 72.0795 4.30995C72.1595 4.28995 72.2395 4.26995 72.3195 4.24995C72.8195 4.11995 73.3195 3.98995 73.8095 3.84995C74.2895 3.70995 74.7695 3.55995 75.2295 3.37995C75.4695 3.27995 75.6995 3.17995 75.9295 3.05995C76.0495 2.99995 76.1695 2.93995 76.2795 2.86995C76.3095 2.84995 76.6295 2.67995 76.6295 2.65995C77.1195 3.76995 74.9895 5.41995 74.8295 5.96995C74.2095 8.03995 76.9895 6.42995 77.4695 6.36995C77.9095 6.30995 80.8795 7.44995 81.4695 7.72995C91.3795 12.4899 96.6895 22.1999 98.4295 32.8199C99.1495 37.1999 98.9595 42.2799 101.8 45.9099C100.18 46.2099 99.4395 45.3399 99.9995 47.3899C101.05 51.1899 104.04 54.0299 105.82 57.3899C109.9 65.1099 107.97 74.0499 98.1995 74.7699C95.0495 74.9999 87.9395 74.8299 88.2095 70.2899C89.1595 70.1799 90.4195 70.4399 91.3295 70.2899C92.7895 70.0499 92.8795 68.2599 91.8095 68.0499C89.7095 67.6499 86.4295 68.9499 86.9495 65.0999C87.2095 63.2299 88.1395 63.9799 89.5795 63.8899C90.1295 63.8599 91.4695 63.7799 91.9095 63.6499C92.5795 63.4599 92.8095 62.3099 92.0395 61.8899C90.4395 61.0099 86.7895 62.8999 86.9295 59.6399C86.9695 58.6499 87.7295 57.5599 88.6495 57.1999C89.8095 56.7399 91.8195 56.5599 93.0795 56.5199C93.9295 56.4899 95.3195 57.0599 95.6595 56.0599C96.3195 54.0699 92.1295 54.7299 91.8795 54.3599C91.4295 52.3599 90.9695 49.2599 92.2495 47.5199C93.0095 46.4899 93.7195 47.0099 94.3695 47.9099C95.2695 49.1499 95.2295 50.7299 95.7795 52.0999C96.4395 53.7499 97.6795 55.0799 99.3295 55.7399C100.27 56.1199 103.31 57.16 103.1 55.3299C103.02 54.6099 102.53 54.7999 102.01 54.4999C101.35 54.1299 100.65 53.8499 99.9995 53.4699C96.7595 51.5299 97.7295 45.5499 93.8595 44.7399C88.9595 43.7199 88.5295 51.5299 89.6595 54.6199C86.1895 54.8599 83.8195 57.9799 84.7195 61.3999C84.8595 61.9199 85.3195 62.3099 85.3395 62.6999C85.3695 63.1599 84.7995 63.8599 84.7195 64.4599C84.4995 66.0899 84.7195 67.3899 85.4395 68.8299C85.5495 69.0499 85.8795 69.1799 85.9495 69.4299C86.1095 69.9599 85.9295 70.9299 86.0195 71.5999C86.6995 76.3599 93.7795 77.5099 97.6495 77.16C97.5895 82.53 94.3495 87.2999 93.9795 92.5999C93.9395 93.2399 93.8795 94.6599 94.0995 95.1999C94.3295 95.7799 95.8395 96.3399 96.4095 96.8399C96.9095 97.2699 98.5395 99.13 98.6895 99.7199C98.8295 100.23 98.8895 100.92 98.5295 101.33H98.5095Z" fill="#010101"/>
</g>
<defs>
<clipPath id="clip0_3938_54">
<rect width="110.15" height="106.37" fill="white"/>
</clipPath>
</defs>
</svg>
