<svg width="159" height="196" viewBox="0 0 159 196" fill="none" xmlns="http://www.w3.org/2000/svg">
<path d="M62.7824 0.10691C73.9662 -1.2565 81.1269 10.7244 72.6536 18.7223C70.9568 20.3219 67.5739 21.6853 66.9123 24.0042C66.4534 25.6253 66.955 28.395 64.191 28.395C60.488 28.395 61.5872 23.0165 62.8998 20.8587C65.2796 16.951 72.0667 15.5339 71.0956 9.81183C69.911 2.85521 57.9909 3.79993 57.5213 11.2826C57.4253 12.7641 58.3964 14.2349 56.6036 15.4158C54.5653 16.7577 52.7191 15.2225 52.4523 13.0432C51.684 6.67706 56.6036 0.858398 62.7931 0.10691H62.7824Z" fill="black"/>
<path d="M63.6577 31.7984C67.7769 31.004 68.7054 37.0481 64.9917 37.66C60.6377 38.3685 60.0294 32.4962 63.6577 31.7984Z" fill="black"/>
<path d="M91.3974 60.9225C103.839 67.9752 109.818 82.133 109.009 96.3302C108.591 103.685 106.163 109.148 108.121 116.792C109.009 120.286 111.672 124.843 105.432 124.226L108.526 132.198L111.267 127.128C111.698 126.576 112.468 126.222 113.16 126.143H157.169C160.877 126.301 157.104 132.04 156.177 133.852C153.24 139.605 149.741 145.081 146.634 150.729L146.595 187.896C146.647 188.684 146.242 189.38 145.616 189.801C130.315 191.994 114.949 193.911 99.6222 196C88.3425 195.08 76.5667 191.968 65.3784 191.153C57.3887 190.576 48.5112 191.153 40.4039 190.917C30.7953 190.641 14.6983 190.549 5.80768 187.647C4.61966 187.253 2.29584 186.452 2.76582 184.797C3.31414 182.853 10.1942 182.105 11.9958 181.96C11.9436 176.812 14.1891 171.913 14.5808 166.83C14.9724 161.748 12.2178 157.69 11.552 152.581C11.4345 151.727 11.7086 150.584 11.3953 149.836C10.7817 148.365 9.81562 149.389 8.81037 149.337C3.95384 149.074 0.455057 141.956 0.102568 137.635C-1.24212 121.428 11.0036 110.58 15.2466 96.015C15.5077 95.1088 15.5991 94.1632 16.0299 93.3095C13.8366 92.8761 12.3614 91.6416 13.0402 89.1856C17.8054 83.2625 20.56 76.2361 25.4166 70.3523C36.4743 56.9562 52.7802 52.1232 69.6605 53.187C74.2037 53.4759 78.6425 54.96 83.1988 55.1438C85.4051 55.2358 89.7916 54.4215 91.4235 55.9712C92.8857 57.3634 92.3635 59.4253 91.4235 60.9357L91.3974 60.9225ZM42.9758 186.136C45.9001 185.953 50.1431 185.585 48.472 181.251C47.7017 179.241 45.6129 178.02 44.5554 176.286C44.9601 173.266 45.4954 170.127 46.6965 167.356C45.2996 167.08 44.0985 164.821 45.9132 164.388C47.5712 163.994 54.869 165.688 55.4957 165.057V149.468C55.4957 148.746 56.8795 148.05 57.5323 147.918C64.0338 146.671 71.5927 147.34 78.1986 146.211C81.7757 146.329 85.3398 145.751 88.9039 145.489C90.118 145.397 97.2853 145.383 97.7161 144.766L102.168 120.299C102.664 118.933 104.701 121.034 105.915 120.601C100.68 111.578 105.719 100.927 105.197 91.2476C104.557 79.2568 97.3506 66.0446 85.4573 62.6167C85.2484 62.3409 89.0214 59.5698 88.5514 58.5191C81.6974 60.0557 74.8304 57.4028 67.9895 57.0613C51.8924 56.2339 36.4873 61.7237 26.6176 74.9753C23.2886 79.4406 21.1083 85.0749 17.5312 89.1856C17.3485 89.3958 16.7349 89.6978 16.7218 89.816C16.6696 90.604 20.312 89.7241 20.5078 90.5646C20.56 90.7616 19.607 93.9793 19.4503 94.5309C16.6304 104.919 12.6747 110.16 8.11845 119.248C4.29328 126.879 0.807547 138.318 7.57013 145.265C7.79207 144.504 7.71373 142.928 8.14456 142.271C8.31427 142.021 8.48399 142.074 8.71898 142.166C9.08453 142.31 11.1472 144.911 11.8522 145.502C14.3588 147.59 18.1318 149.113 21.3694 149.14C22.5314 149.14 24.4505 148.575 25.5341 148.759C26.7612 148.969 25.3774 150.624 25.5341 150.821C25.6254 150.952 27.7404 151.517 28.0668 151.53C31.4089 151.635 32.9363 149.074 30.0511 146.592C29.307 145.948 27.179 145.252 28.0145 144.044C28.9023 142.757 34.5813 145.344 34.6988 147.209C38.6806 144.884 37.8712 140.458 34.8163 137.661C34.2157 137.109 32.3227 136.44 33.1322 135.468C33.7458 134.732 35.0904 135.31 35.7693 135.612C36.9051 136.111 37.9234 136.781 39.1114 137.188C40.0122 137.503 40.9653 137.714 41.9052 137.911C42.7277 138.081 43.6155 138.252 44.451 138.108C45.2865 137.963 45.8087 137.503 45.9915 136.689C46.9184 131.764 39.725 129.794 36.0957 129.361C32.4663 128.927 26.8787 129.952 26.0824 124.803C25.7429 122.597 27.2965 118.119 28.354 116.122C28.7978 115.282 29.8423 113.771 30.8997 114.835C32.6491 116.582 26.5785 124.764 31.6308 125.447C32.8319 125.618 34.2157 125.355 35.4299 125.447C39.7642 125.802 45.3518 127.233 48.1064 130.937C52.4669 136.807 47.8453 143.505 41.0175 141.89C41.135 144.819 39.7772 147.958 37.4273 149.718C36.6962 150.269 35.5082 150.571 35.1296 150.9C34.8032 151.188 34.2941 152.397 33.8763 152.883C31.5525 155.496 27.1398 155.509 24.2024 154.012C23.641 153.723 22.44 152.646 22.0483 152.567C21.6306 152.489 21.1606 152.804 20.6906 152.778C18.6409 152.62 16.5651 152.213 14.6199 151.556C15.1552 155.759 17.8837 159.83 18.184 164.007C18.6148 169.956 16.0429 174.96 15.5729 180.437C15.4685 181.697 15.2596 183.181 16.4346 183.904C18.3668 185.086 24.9074 185.742 27.3357 185.874C27.3357 185.874 40.4169 186.491 43.0019 186.176L42.9758 186.136ZM154.65 129.545H114.218L102.808 150.203C106.006 150.611 109.231 149.98 112.429 149.836C121.79 149.389 131.15 148.916 140.498 148.404C141.712 148.339 142.939 148.483 144.14 148.365L154.637 129.558L154.65 129.545ZM104.479 130.753C104.374 130.635 103.826 130.7 104.009 131.121L102.103 144.044L106.581 136.374C106.672 135.954 105.079 132.762 104.766 132.027C104.622 131.672 104.518 130.805 104.479 130.753ZM97.5856 191.876V154.551L58.8247 151.294V186.452L97.5856 191.889V191.876ZM143.24 152.003L100.915 154.183V192.112L143.24 186.793V152.003ZM55.4957 168.682C53.4199 168.682 51.3572 168.761 49.3075 168.433L48.5895 175.301C49.7906 176.969 51.3964 178.414 51.9316 180.515H55.4957V168.682Z" fill="black"/>
<path d="M52.3495 83.2232C70.4701 81.8179 67.7677 112.169 50.2998 109.083C36.148 106.587 39.229 84.2344 52.3495 83.2232ZM57.6891 99.5217C59.5168 101.229 61.3054 96.1727 59.3732 95.516C57.6107 94.9119 56.3966 98.3266 57.6891 99.5217Z" fill="black"/>
<path d="M87.0756 86.1252C102.05 85.0352 101.097 113.535 85.5742 111.906C72.6365 110.553 74.1901 87.0577 87.0756 86.1252ZM92.5326 98.1817C90.8616 96.4218 88.9294 101.176 91.1488 101.898C92.7154 102.398 93.4987 99.2061 92.5326 98.1817Z" fill="black"/>
<path d="M52.8212 72.3357C54.4531 72.0731 60.0538 72.165 59.2574 75.0018C58.7875 76.6698 56.0459 75.5009 54.897 75.4221C53.6568 75.3433 52.4687 75.4615 51.2807 75.8555C50.5105 76.105 46.1109 79.1651 47.0378 76.1313C47.5731 74.3714 51.1241 72.5984 52.8212 72.3357Z" fill="black"/>
<path d="M88.0291 75.2382C90.4835 75.1594 95.7186 77.6285 95.6925 80.3733C95.6925 82.7768 93.7342 80.4915 93.1337 80.045C91.5279 78.8761 90.1963 78.2195 88.1858 78.0487C87.1936 77.9699 85.2875 78.7711 85.1831 76.9718C85.0917 75.4483 86.8542 75.2513 88.0161 75.2119L88.0291 75.2382Z" fill="black"/>
<path d="M123.879 182C124.27 181.252 124.544 180.451 124.701 179.623C125.249 176.76 124.362 173.831 122.312 171.782C122.221 171.691 122.129 171.612 122.038 171.52C121.96 171.428 121.868 171.336 121.777 171.244C119.727 169.182 116.816 168.289 113.983 168.841C113.16 168.998 112.364 169.287 111.62 169.668H111.594L111.711 169.786L111.907 169.983L114.14 172.229L114.166 172.268H114.179C116.137 171.507 118.461 171.914 120.04 173.516C121.62 175.118 122.025 177.443 121.268 179.413H121.281L121.307 179.452L123.539 181.698L123.735 181.895L123.853 182.013C123.853 182.013 123.853 182.013 123.853 181.987L123.879 182Z" fill="#010101"/>
<path d="M131.399 180.595C131.986 179.466 132.065 178.954 132.313 177.706C134.088 168.473 125.25 159.608 116.098 161.394C114.845 161.644 114.205 161.749 112.913 162.248C112.9 162.248 112.887 162.261 112.887 162.261L113.056 162.432L113.344 162.721L116.712 166.109H116.725L116.764 166.175L116.79 166.201C119.767 165.032 123.253 165.689 125.655 168.105C128.044 170.522 128.814 173.792 127.652 176.787L127.678 176.813L127.717 176.852H127.73L130.916 180.188L131.203 180.477L131.373 180.648C131.373 180.648 131.373 180.635 131.386 180.621L131.399 180.595Z" fill="#010101"/>
</svg>
