<svg width="70" height="70" viewBox="0 0 70 70" fill="none" xmlns="http://www.w3.org/2000/svg">
<path d="M36.6498 61.5435L36.6618 61.5315C36.6618 61.5315 36.6618 61.5316 36.6678 61.5256C37.5667 59.8117 38.2019 57.9779 38.5735 56.0723C39.8439 49.5283 37.7884 42.8105 33.0842 38.1063C32.8805 37.9026 32.6707 37.7048 32.467 37.5131C32.2692 37.3033 32.0774 37.0996 31.8737 36.8958C27.1695 32.1916 20.4517 30.1361 13.9078 31.4066C12.0021 31.7781 10.1684 32.4133 8.45446 33.3122C8.45446 33.3122 8.45446 33.3122 8.44847 33.3182L8.43648 33.3302L8.39453 33.3602L8.65821 33.6238L9.10166 34.0673L14.2314 39.197L14.2553 39.221L14.3213 39.2869L14.3512 39.3168C18.8697 37.543 24.2031 38.4898 27.8646 42.1274C31.5081 45.7829 32.443 51.1163 30.6752 55.6408L30.7051 55.6707L30.771 55.7367L30.795 55.7606L35.9247 60.8903L36.3682 61.3338L36.6318 61.5975C36.6318 61.5975 36.6498 61.5795 36.6618 61.5555L36.6498 61.5435Z" fill="#F5F5F5"/>
<path d="M55.3311 59.6606C55.3311 59.6606 55.3438 59.6479 55.3501 59.6288C55.3501 59.6288 55.3564 59.6225 55.3628 59.6162C56.7969 56.8696 56.9839 55.6504 57.5659 52.5964C61.8461 30.1835 40.2031 8.6038 17.841 12.8715C14.787 13.4535 13.2123 13.7284 10.0712 14.9327C10.0712 14.9327 10.0648 14.939 10.0585 14.9454C10.0522 14.9517 10.0395 14.9644 10.0268 14.9643C9.98874 14.9896 9.95703 15.0086 9.95703 15.0086L10.3839 15.4355L11.0975 16.149L19.3292 24.3807L19.3674 24.419L19.4757 24.5273L19.5267 24.5782C26.767 21.7595 35.2972 23.3852 41.1842 29.2468C47.0458 35.1338 48.9429 43.074 46.1306 50.3207L46.1816 50.3717L46.2899 50.48L46.3281 50.5182L54.1464 58.5899L54.86 59.3034L55.2869 59.7303C55.2869 59.7303 55.3058 59.6986 55.3311 59.6606Z" fill="#F5F5F5"/>
</svg>
