<svg width="369" height="71" viewBox="0 0 369 71" fill="none" xmlns="http://www.w3.org/2000/svg">
<g clip-path="url(#clip0_3872_2)">
<path d="M47.2893 25.3203H38.0293V68.7803H47.2893V25.3203Z" fill="black"/>
<path d="M0 0H9.2V60.29H30.03V68.55H0V0Z" fill="black"/>
<path d="M101.251 68.79C101.251 68.79 101.251 68.76 101.241 68.73C101.241 68.73 101.241 68.71 101.241 68.7C101.241 68.7 101.241 68.7 101.241 68.69C100.561 66.51 99.5605 64.45 98.2805 62.55C93.8805 56.03 86.5605 52.14 78.7105 52.14C74.7605 52.14 70.9305 53.15 67.5405 54.98L96.6005 25.32H85.3605L64.5705 46.96V0H55.3105V68.79H64.0805C66.3805 63.54 71.6205 59.86 77.7205 59.86C83.8205 59.86 89.0705 63.53 91.3705 68.79H101.271H101.251Z" fill="black"/>
<path d="M135.89 59.5004C133.29 61.6304 129.91 62.9304 126.04 62.9304C118.2 62.9304 112.62 57.8304 111.21 50.8404H150.33C150.81 46.8204 150.33 43.2804 150.33 43.2804C148.63 32.2304 138.71 23.4404 126.05 23.4404C111.97 23.4404 101.58 34.2104 101.58 47.0604C101.58 59.9104 111.97 70.6804 126.05 70.6804C135.3 70.6804 142.86 66.0904 147.04 59.5104H135.9L135.89 59.5004ZM126.04 31.1804C133.88 31.1804 139.74 36.4704 141.06 43.2704H111.2C112.71 36.1804 118.48 31.1804 126.03 31.1804H126.04Z" fill="black"/>
<path d="M168.201 58.8898H168.221C168.221 58.8898 168.221 58.8898 168.231 58.8898C170.411 58.2098 172.471 57.2098 174.371 55.9298C180.891 51.5298 184.781 44.2098 184.781 36.3598C184.781 36.0198 184.771 35.6798 184.761 35.3498C184.771 35.0098 184.781 34.6798 184.781 34.3398C184.781 26.4898 180.891 19.1698 174.371 14.7698C172.471 13.4898 170.411 12.4898 168.231 11.8098C168.231 11.8098 168.231 11.8098 168.221 11.8098H168.201L168.141 11.7998V12.2398V12.9798V21.5398V21.5798V21.6898V21.7398C173.391 24.0298 177.051 29.2698 177.071 35.3598C177.061 41.4498 173.391 46.6798 168.141 48.9798V49.0298V49.1398V49.1798V57.7398V58.4798V58.9198C168.141 58.9198 168.171 58.9198 168.201 58.9098V58.8898Z" fill="black"/>
<path d="M185.34 70.65C185.34 70.65 185.36 70.65 185.38 70.64C185.38 70.64 185.39 70.64 185.4 70.64C188.7 69.61 189.81 68.8 192.68 66.86C213.75 52.63 213.7 18.71 192.68 4.51C189.81 2.57 188.35 1.55 184.92 0.03C184.92 0.03 184.91 0.03 184.9 0.03C184.89 0.03 184.87 0.03 184.86 0.02C184.81 0.01 184.77 0 184.77 0V0.67V1.79V14.71V14.77V14.94V15.02C192.71 18.49 198.16 26.46 198.18 35.68C198.16 44.9 193.39 52.62 185.45 56.1V56.18V56.35V56.41L185.25 68.88V70V70.67C185.25 70.67 185.29 70.66 185.34 70.65Z" fill="black"/>
<path d="M224.27 23.5996H243.55C249.98 23.5996 254.78 28.3396 254.78 34.6996C254.78 39.2396 252.12 43.0696 248.68 44.6296C254.07 45.7296 257.77 50.4696 257.77 56.3096C257.77 63.2596 252.58 68.3796 245.57 68.3796H224.28V23.5996H224.27ZM228.17 27.2396V43.3996H242.71C247.06 43.3996 250.69 39.8896 250.69 35.2896C250.69 30.6896 247.25 27.2396 242.71 27.2396H228.17ZM228.17 46.8396V64.7596H244.79C249.85 64.7596 253.62 60.8696 253.62 55.7396C253.62 50.6096 249.85 46.8496 244.79 46.8496H228.17V46.8396Z" fill="black"/>
<path d="M262.59 51.8398C262.59 41.9698 269.8 34.5098 279.4 34.5098C285.76 34.5098 290.89 37.7598 293.68 42.8798V35.2898H297.44V68.3898H293.68V60.7998C290.89 65.9298 285.76 69.1698 279.4 69.1698C269.79 69.1698 262.59 61.7098 262.59 51.8398ZM293.68 51.8398C293.68 44.0498 287.84 38.1398 280.05 38.1398C272.26 38.1398 266.48 44.0498 266.48 51.8398C266.48 59.6298 272.32 65.5398 280.05 65.5398C287.78 65.5398 293.68 59.6298 293.68 51.8398Z" fill="black"/>
<path d="M304.4 59.3H308.29C308.29 63.2 311.73 65.73 316.92 65.73C322.11 65.73 325.23 63.33 325.23 59.82C325.23 51.32 304.91 55.6 304.91 43.98C304.91 38.27 309.58 34.5 316.66 34.5C323.74 34.5 328.6 38.27 328.6 43.98H324.71C324.71 40.34 321.46 37.94 316.6 37.94C311.74 37.94 308.81 40.21 308.81 43.59C308.81 51.96 329.13 47.68 329.13 59.43C329.13 65.27 324.26 69.17 316.93 69.17C309.6 69.17 304.4 65.21 304.4 59.3Z" fill="black"/>
<path d="M333.76 51.8398C333.76 41.9698 341.29 34.5098 351.22 34.5098C361.15 34.5098 368.75 41.9698 368.75 51.8398C368.75 52.3598 368.69 52.9398 368.62 53.3998H337.72C338.43 60.5398 344.02 65.6698 351.48 65.6698C357.06 65.6698 361.87 62.8098 363.94 58.5298H368.16C365.63 64.8898 359.14 69.1798 351.41 69.1798C341.28 69.1798 333.75 61.7198 333.75 51.8498L333.76 51.8398ZM337.72 50.0198H364.79C364.14 43.3998 358.69 38.0098 351.22 38.0098C343.75 38.0098 338.56 43.0098 337.72 50.0198Z" fill="black"/>
</g>
<defs>
<clipPath id="clip0_3872_2">
<rect width="368.74" height="70.67" fill="white"/>
</clipPath>
</defs>
</svg>
