<svg width="92" height="92" viewBox="0 0 92 92" fill="none" xmlns="http://www.w3.org/2000/svg">
<rect width="92" height="92" rx="12" fill="black"/>
<path d="M47.6498 72.5437L47.6618 72.5317C47.6618 72.5317 47.6618 72.5318 47.6678 72.5258C48.5667 70.8119 49.2019 68.9781 49.5735 67.0725C50.8439 60.5285 48.7884 53.8107 44.0842 49.1065C43.8805 48.9028 43.6707 48.705 43.467 48.5133C43.2692 48.3035 43.0774 48.0998 42.8737 47.896C38.1695 43.1918 31.4517 41.1363 24.9078 42.4068C23.0021 42.7783 21.1684 43.4135 19.4545 44.3124C19.4545 44.3124 19.4545 44.3124 19.4485 44.3184L19.4365 44.3304L19.3945 44.3604L19.6582 44.624L20.1017 45.0675L25.2314 50.1972L25.2553 50.2212L25.3213 50.2871L25.3512 50.317C29.8697 48.5432 35.2031 49.49 38.8646 53.1276C42.5081 56.7831 43.443 62.1165 41.6752 66.641L41.7051 66.6709L41.771 66.7369L41.795 66.7608L46.9247 71.8905L47.3682 72.334L47.6318 72.5977C47.6318 72.5977 47.6498 72.5797 47.6618 72.5557L47.6498 72.5437Z" fill="#F5F5F5"/>
<path d="M66.3311 70.6608C66.3311 70.6608 66.3438 70.6481 66.3501 70.629C66.3501 70.629 66.3564 70.6227 66.3628 70.6164C67.7969 67.8698 67.9839 66.6506 68.5659 63.5966C72.8461 41.1837 51.2031 19.604 28.841 23.8717C25.787 24.4537 24.2123 24.7286 21.0712 25.9329C21.0712 25.9329 21.0648 25.9392 21.0585 25.9456C21.0522 25.9519 21.0395 25.9646 21.0268 25.9645C20.9887 25.9898 20.957 26.0088 20.957 26.0088L21.3839 26.4357L22.0975 27.1492L30.3292 35.3809L30.3674 35.4192L30.4757 35.5275L30.5267 35.5784C37.767 32.7597 46.2972 34.3854 52.1842 40.247C58.0458 46.134 59.9429 54.0742 57.1306 61.3209L57.1816 61.3719L57.2899 61.4802L57.3281 61.5184L65.1464 69.5901L65.86 70.3036L66.2869 70.7305C66.2869 70.7305 66.3058 70.6988 66.3311 70.6608Z" fill="#F5F5F5"/>
</svg>
