<svg width="265" height="74" viewBox="0 0 265 74" fill="none" xmlns="http://www.w3.org/2000/svg">
<g clip-path="url(#clip0_3872_67)">
<path d="M264.819 73.2396H158.609V25.0596H264.819V73.2396ZM161.599 70.2396H261.809V28.0596H161.599V70.2396Z" fill="black"/>
<path d="M168.36 35.6396H180.37C184.22 35.6396 187.18 38.4496 187.18 42.2996C187.18 44.9196 185.72 47.1496 183.79 48.0696C186.75 48.8396 188.79 51.6497 188.79 55.0396C188.79 59.1596 185.67 62.1996 181.48 62.1996H168.35V35.6396H168.36ZM171.78 38.8396V46.9196H179.56C181.72 46.9196 183.56 45.1896 183.56 42.8797C183.56 40.5697 181.83 38.8396 179.56 38.8396H171.78ZM171.78 49.9596V59.0096H180.67C183.25 59.0096 185.17 57.0497 185.17 54.4697C185.17 51.8897 183.25 49.9697 180.67 49.9697H171.78V49.9596Z" fill="black"/>
<path d="M192.359 52.3894C192.359 46.5394 196.559 42.1094 202.179 42.1094C205.449 42.1094 208.149 43.6494 209.799 46.1094V42.5694H213.109V62.1994H209.799V58.6594C208.139 61.1194 205.449 62.6594 202.179 62.6594C196.559 62.6594 192.359 58.2294 192.359 52.3794V52.3894ZM209.789 52.3894C209.789 48.3494 206.789 45.3094 202.779 45.3094C198.769 45.3094 195.739 48.3494 195.739 52.3894C195.739 56.4294 198.739 59.4694 202.779 59.4694C206.819 59.4694 209.789 56.4294 209.789 52.3894Z" fill="black"/>
<path d="M217.859 56.6194H221.249C221.249 58.4694 222.939 59.6594 225.479 59.6594C227.869 59.6594 229.439 58.5394 229.439 56.9694C229.439 52.7394 218.159 54.9694 218.159 48.0394C218.159 44.4594 221.009 42.1094 225.279 42.1094C229.549 42.1094 232.519 44.4194 232.519 47.9194H229.129C229.129 46.2294 227.589 45.1094 225.239 45.1094C222.889 45.1094 221.549 46.1494 221.549 47.6494C221.549 51.7694 232.829 49.5694 232.829 56.6194C232.829 60.2394 229.899 62.6594 225.439 62.6594C220.979 62.6594 217.859 60.2394 217.859 56.6194Z" fill="black"/>
<path d="M236.209 52.3894C236.209 46.5394 240.709 42.1094 246.639 42.1094C252.569 42.1094 257.069 46.5394 257.069 52.3894C257.069 52.8494 257.029 53.3494 256.989 53.7794H239.749C240.329 57.2394 243.099 59.6294 246.789 59.6294C249.519 59.6294 251.909 58.3194 253.019 56.3594H256.719C255.179 60.1294 251.369 62.6694 246.749 62.6694C240.709 62.6694 236.199 58.2394 236.199 52.3894H236.209ZM239.779 50.8094H253.559C252.979 47.5394 250.209 45.1494 246.629 45.1494C243.049 45.1494 240.429 47.4594 239.779 50.8094Z" fill="black"/>
<path d="M47.6994 25.54H38.3594V69.38H47.6994V25.54Z" fill="black"/>
<path d="M0 0.240234H9.28V60.8202H30.29V69.1502H0V0.240234Z" fill="black"/>
<path d="M102.129 69.38C102.129 69.38 102.129 69.35 102.109 69.32C102.109 69.32 102.109 69.3 102.109 69.29C102.109 69.29 102.109 69.29 102.109 69.28C101.419 67.08 100.419 65 99.1293 63.09C94.6893 56.52 87.3093 52.59 79.3893 52.59C75.4093 52.59 71.5393 53.61 68.1193 55.45L97.4293 25.54H86.0893L65.1193 47.37V0H55.7793V69.38H64.6193C66.9393 64.08 72.2293 60.38 78.3793 60.38C84.5293 60.38 89.8293 64.08 92.1393 69.38H102.119H102.129Z" fill="black"/>
<path d="M137.071 60.0204C134.451 62.1704 131.041 63.4804 127.131 63.4804C119.221 63.4804 113.601 58.3304 112.171 51.2804H151.631C152.121 47.2304 151.631 43.6604 151.631 43.6604C149.911 32.5104 139.911 23.6504 127.141 23.6504C112.941 23.6504 102.461 34.5204 102.461 47.4804C102.461 60.4404 112.941 71.3104 127.141 71.3104C136.471 71.3104 144.101 66.6804 148.311 60.0404H137.081L137.071 60.0204ZM127.131 31.4504C135.041 31.4504 140.951 36.7904 142.281 43.6504H112.161C113.691 36.5004 119.501 31.4504 127.121 31.4504H127.131Z" fill="black"/>
</g>
<defs>
<clipPath id="clip0_3872_67">
<rect width="264.82" height="73.24" fill="white"/>
</clipPath>
</defs>
</svg>
