<svg width="196" height="92" viewBox="0 0 196 92" fill="none" xmlns="http://www.w3.org/2000/svg">
<path d="M108 55H119.61C123.481 55 126.372 57.8542 126.372 61.6839C126.372 64.4177 124.77 66.724 122.699 67.6634C125.944 68.3257 128.172 71.18 128.172 74.6966C128.172 78.8816 125.047 81.9646 120.826 81.9646H108.006V55H108ZM110.348 57.1919V66.9227H119.104C121.723 66.9227 123.909 64.8091 123.909 62.0392C123.909 59.2693 121.838 57.1919 119.104 57.1919H110.348ZM110.348 68.9941V79.7848H120.356C123.403 79.7848 125.673 77.4424 125.673 74.3533C125.673 71.2643 123.403 69.0002 120.356 69.0002H110.348V68.9941Z" fill="black"/>
<path d="M131.074 72.0047C131.074 66.0614 135.416 61.5693 141.196 61.5693C145.026 61.5693 148.115 63.5263 149.795 66.6094V62.039H152.059V81.9704H149.795V77.4001C148.115 80.4891 145.026 82.4401 141.196 82.4401C135.41 82.4401 131.074 77.948 131.074 72.0047ZM149.795 72.0047C149.795 67.3139 146.279 63.7552 141.588 63.7552C136.897 63.7552 133.417 67.3139 133.417 72.0047C133.417 76.6955 136.933 80.2543 141.588 80.2543C146.243 80.2543 149.795 76.6955 149.795 72.0047Z" fill="black"/>
<path d="M156.252 76.497H158.594C158.594 78.8454 160.666 80.3689 163.791 80.3689C166.916 80.3689 168.795 78.9237 168.795 76.8101C168.795 71.6918 156.559 74.269 156.559 67.2719C156.559 63.8336 159.371 61.5635 163.634 61.5635C167.898 61.5635 170.824 63.8336 170.824 67.2719H168.482C168.482 65.0801 166.525 63.6349 163.598 63.6349C160.672 63.6349 158.907 65.0018 158.907 67.0371C158.907 72.0771 171.143 69.4999 171.143 76.5753C171.143 80.0919 168.211 82.4403 163.797 82.4403C159.383 82.4403 156.252 80.0557 156.252 76.497Z" fill="black"/>
<path d="M173.93 72.0047C173.93 66.0614 178.464 61.5693 184.444 61.5693C190.423 61.5693 194.999 66.0614 194.999 72.0047C194.999 72.3178 194.963 72.6671 194.921 72.9441H176.314C176.742 77.2435 180.108 80.3326 184.6 80.3326C187.96 80.3326 190.856 78.6104 192.103 76.0332H194.644C193.121 79.8629 189.213 82.4461 184.558 82.4461C178.458 82.4461 173.924 77.954 173.924 72.0107L173.93 72.0047ZM176.314 70.9088H192.615C192.223 66.9225 188.942 63.6769 184.444 63.6769C179.945 63.6769 176.82 66.6877 176.314 70.9088Z" fill="black"/>
<path d="M135.432 24.6875H130.061V49.8976H135.432V24.6875Z" fill="black"/>
<path d="M108 10H113.337V44.9728H125.42V49.7642H108V10Z" fill="black"/>
<path d="M166.733 49.9034C166.733 49.9034 166.733 49.886 166.727 49.8686C166.727 49.8686 166.727 49.857 166.727 49.8512C166.727 49.8512 166.727 49.8512 166.727 49.8454C166.332 48.5808 165.752 47.3859 165.01 46.2837C162.458 42.5016 158.211 40.2451 153.658 40.2451C151.366 40.2451 149.145 40.831 147.178 41.8926L164.035 24.6875H157.515L145.455 37.2404V10H140.084V49.9034H145.171C146.505 46.858 149.545 44.7233 153.083 44.7233C156.622 44.7233 159.667 46.8522 161.002 49.9034H166.744H166.733Z" fill="black"/>
<path d="M186.826 44.5152C185.318 45.7507 183.357 46.5048 181.112 46.5048C176.565 46.5048 173.328 43.5465 172.51 39.4917H195.203C195.481 37.1598 195.203 35.1064 195.203 35.1064C194.216 28.6965 188.462 23.5977 181.118 23.5977C172.951 23.5977 166.924 29.8451 166.924 37.299C166.924 44.753 172.951 51.0004 181.118 51.0004C186.484 51.0004 190.869 48.3379 193.294 44.521H186.832L186.826 44.5152ZM181.112 28.0874C185.66 28.0874 189.06 31.156 189.825 35.1006H172.504C173.38 30.9878 176.727 28.0874 181.107 28.0874H181.112Z" fill="black"/>
<rect width="92" height="92" rx="12" fill="black"/>
<path d="M47.6498 72.5437L47.6618 72.5317C47.6618 72.5317 47.6618 72.5318 47.6678 72.5258C48.5667 70.8119 49.2019 68.9781 49.5735 67.0725C50.8439 60.5285 48.7884 53.8107 44.0842 49.1065C43.8805 48.9028 43.6707 48.705 43.467 48.5133C43.2692 48.3035 43.0774 48.0998 42.8737 47.896C38.1695 43.1918 31.4517 41.1363 24.9078 42.4068C23.0021 42.7783 21.1684 43.4135 19.4545 44.3124C19.4545 44.3124 19.4545 44.3124 19.4485 44.3184L19.4365 44.3304L19.3945 44.3604L19.6582 44.624L20.1017 45.0675L25.2314 50.1972L25.2553 50.2212L25.3213 50.2871L25.3512 50.317C29.8697 48.5432 35.2031 49.49 38.8646 53.1276C42.5081 56.7831 43.443 62.1165 41.6752 66.641L41.7051 66.6709L41.771 66.7369L41.795 66.7608L46.9247 71.8905L47.3682 72.334L47.6318 72.5977C47.6318 72.5977 47.6498 72.5797 47.6618 72.5557L47.6498 72.5437Z" fill="#F5F5F5"/>
<path d="M66.3311 70.6608C66.3311 70.6608 66.3438 70.6481 66.3501 70.629C66.3501 70.629 66.3564 70.6227 66.3628 70.6164C67.7969 67.8698 67.9839 66.6506 68.5659 63.5966C72.8461 41.1837 51.2031 19.604 28.841 23.8717C25.787 24.4537 24.2123 24.7286 21.0712 25.9329C21.0712 25.9329 21.0648 25.9392 21.0585 25.9456C21.0522 25.9519 21.0395 25.9646 21.0268 25.9645C20.9887 25.9898 20.957 26.0088 20.957 26.0088L21.3839 26.4357L22.0975 27.1492L30.3292 35.3809L30.3674 35.4192L30.4757 35.5275L30.5267 35.5784C37.767 32.7597 46.2972 34.3854 52.1842 40.247C58.0458 46.134 59.9429 54.0742 57.1306 61.3209L57.1816 61.3719L57.2899 61.4802L57.3281 61.5184L65.1464 69.5901L65.86 70.3036L66.2869 70.7305C66.2869 70.7305 66.3058 70.6988 66.3311 70.6608Z" fill="#F5F5F5"/>
</svg>
