<svg width="120" height="66" viewBox="0 0 120 66" fill="none" xmlns="http://www.w3.org/2000/svg">
<g clip-path="url(#clip0_4719_236)">
<path d="M65.7855 50.1389V47.153H64.2168V60.8863H65.7855V53.7794C65.7855 50.6035 67.8717 48.5575 71.1445 48.5575H71.4975V46.9418H71.1445C68.7105 46.9418 66.8153 48.1536 65.7855 50.1468V50.1415V50.1389Z" fill="#0D0D0D"/>
<path d="M79.4557 46.8257C75.2885 46.8257 72.1484 49.9224 72.1484 54.0144C72.1484 58.1064 75.3176 61.2031 79.4557 61.2031C83.5937 61.2031 86.739 58.1064 86.739 54.0144C86.739 49.9224 83.6282 46.8257 79.4557 46.8257ZM85.1119 54.017C85.1119 57.2458 82.7019 59.6983 79.4557 59.6983C76.2095 59.6983 73.7702 57.2484 73.7702 54.017C73.7702 50.7857 76.2042 48.3358 79.4557 48.3358C82.7072 48.3358 85.1119 50.7857 85.1119 54.017Z" fill="#0D0D0D"/>
<path d="M100.293 55.1998C100.293 57.8926 98.3151 59.6957 95.6343 59.6957C92.9535 59.6957 91.1937 57.919 91.1937 55.2526V47.1504H89.625V55.6855C89.625 59.0278 91.844 61.2058 95.1751 61.2058C97.4764 61.2058 99.26 60.2078 100.293 58.4866V60.8837H101.861V47.1504H100.293V55.2024V55.1971V55.1998Z" fill="#0D0D0D"/>
<path d="M112.96 46.8257C110.335 46.8257 108.169 48.1694 107.004 50.2999V47.1478H105.436V66H107.004V57.7342C108.164 59.8594 110.33 61.2084 112.96 61.2084C116.995 61.2084 120 58.1117 120 54.0197C120 49.9277 116.998 46.831 112.96 46.831V46.8257ZM112.692 59.6983C109.441 59.6983 107.007 57.2484 107.007 54.017C107.007 50.7857 109.441 48.3358 112.692 48.3358C115.944 48.3358 118.378 50.7857 118.378 54.017C118.378 57.2484 115.944 59.6983 112.692 59.6983Z" fill="#0D0D0D"/>
<path d="M48.8391 48.6869H59.8119C59.419 55.007 54.2883 59.6006 47.7349 59.6006C40.6719 59.6006 35.3421 54.2626 35.3421 47.1926C35.3421 47.0158 35.3474 46.8389 35.3553 46.6594H33.6168C33.6115 46.8362 33.6035 47.0105 33.6035 47.1926C33.6035 55.1628 39.6792 61.2084 47.7376 61.2084C55.796 61.2084 61.5531 55.4374 61.5531 47.7022V47.153H48.8417V48.6842H48.8364H48.8391V48.6869Z" fill="#0D0D0D"/>
<path d="M28.7462 15.3067H23.1191V41.5879H28.7462V15.3067Z" fill="#0D0D0D"/>
<path d="M5.58991 0H0V41.448H18.2535V36.4531H5.59257L5.58991 0Z" fill="#0D0D0D"/>
<path d="M82.6114 35.9753C81.0347 37.2636 78.9777 38.0503 76.6233 38.0503C71.8589 38.0503 68.4667 34.9642 67.6041 30.7402H91.3838C91.6784 28.3114 91.3838 26.1703 91.3838 26.1703C90.3513 19.4885 84.3207 14.1715 76.6233 14.1715C68.0633 14.1715 61.7461 20.6844 61.7461 28.4513C61.7461 36.2182 68.0659 42.731 76.6233 42.731C82.2477 42.731 86.8423 39.9538 89.3851 35.9753H82.6114ZM76.618 18.8522C81.3825 18.8522 84.9472 22.0519 85.7514 26.1624H67.6041C68.5251 21.8777 72.0261 18.8522 76.6233 18.8522H76.618Z" fill="#0D0D0D"/>
<path d="M62.0331 41.4525C61.6187 40.1351 61.0132 38.8889 60.2323 37.748C57.5524 33.817 53.1035 31.4694 48.3254 31.4694C45.927 31.4694 43.595 32.078 41.5286 33.1767L59.2071 15.2815H52.3678L39.7225 28.3367V0H34.0918V41.5052H39.4251C40.8248 38.3356 44.0147 36.1171 47.7251 36.1171C51.4356 36.1171 54.6254 38.3329 56.0252 41.5052H62.0463C62.0463 41.5052 62.041 41.4893 62.0384 41.4683C62.0384 41.4683 62.0384 41.4604 62.0331 41.4525Z" fill="#0D0D0D"/>
</g>
<defs>
<clipPath id="clip0_4719_236">
<rect width="120" height="66" fill="white"/>
</clipPath>
</defs>
</svg>
